<?xml version="1.0" encoding="UTF-8"?>
<svg width="50px" height="50px" viewBox="0 0 50 50" version="1.1" xmlns="http://www.w3.org/2000/svg" xmlns:xlink="http://www.w3.org/1999/xlink">
    <title>Halal Food</title>
    <g id="Halal-Food" stroke="none" stroke-width="1" fill="none" fill-rule="evenodd">
        <path d="M25.0007734,27.2 C28.0861152,27.2 30.8845144,28.2859256 32.8710975,30.1330195 L33.0989219,30.1333047 C37.7897474,30.1333047 41.8006436,33.62021 42.5165961,38.2002863 L46.2666953,38.2 C46.6722344,38.2 47,38.5277656 47,38.9333047 C47,43.381 43.381,47 38.9333906,47 L38.9333906,47 L11.0666953,47 C6.619,47 3,43.381 3,38.9333047 C3,38.5277656 3.32853906,38.2 3.73330469,38.2 L3.73330469,38.2 L7.48150134,38.2007347 C7.82742657,35.9301593 8.96711629,33.8833938 10.7359219,32.3824609 C12.5688951,30.8265273 14.8706639,30.0336316 17.2584692,30.1241727 C19.3952115,28.2375137 22.1374593,27.2 24.9912344,27.2 L24.9912344,27.2 Z M45.4922266,39.6666094 L4.507,39.6666094 C4.87292188,42.9622266 7.675,45.5333047 11.0666953,45.5333047 L11.0666953,45.5333047 L38.9333047,45.5333047 C42.325,45.5333047 45.1263047,42.9623125 45.4922266,39.6666094 L45.4922266,39.6666094 Z M17.5625391,31.6124609 C15.4146172,31.435 13.3275391,32.1074609 11.6841562,33.5015391 C10.2463073,34.7210967 9.29949919,36.3676979 8.96821346,38.1998137 L10.4946278,38.2005281 C11.2284053,34.9309567 14.3516039,32.6814903 17.7407734,33.1003828 C17.9400606,33.1248977 18.1365052,33.1581371 18.329718,33.1997118 C18.7031399,32.7652355 19.1106495,32.3760441 19.5449935,32.032765 C18.9051534,31.8093531 18.2363187,31.6671718 17.5625391,31.6124609 Z M34.2216772,31.6870048 L34.3003069,31.8010284 C34.6627956,32.3392126 34.9700312,32.9163516 35.2147031,33.5279219 L35.1700179,33.4186328 C35.9976931,33.70077 36.7681825,34.1495485 37.4395391,34.7496953 C38.4622883,35.6641622 39.1709555,36.8719729 39.4746717,38.2001728 L41.0292897,38.2000758 C40.3963343,34.8089597 37.6106165,32.1888903 34.2216772,31.6870048 Z M33.5793125,37.5297734 C32.7557514,37.3185066 31.9192683,37.6052436 31.3890913,38.2002651 L34.6788254,38.1999551 C34.3922829,37.8773605 34.0119864,37.6403074 33.5793125,37.5297734 Z M33.027953,34.5363961 L32.753625,34.5436172 C31.6811482,34.6033937 30.677536,34.9879831 29.8534405,35.6428233 C30.1368604,36.0594277 30.3637662,36.5109123 30.5308195,36.984098 C31.4133844,36.1588178 32.6867639,35.7858959 33.943,36.1085391 C35.0506409,36.3920494 35.9500176,37.1710633 36.3969238,38.2000394 L37.9584031,38.200368 C37.6883935,37.2961945 37.1728989,36.4785835 36.4620859,35.8423906 C35.4390859,34.9286172 34.1300859,34.4724609 32.753625,34.5436172 Z M17.5611641,34.5553047 C15.0339308,34.2506456 12.7036035,35.8349776 12.0087765,38.2004928 L13.5747588,38.1993941 C13.8824139,37.4943354 14.4032708,36.9058707 15.0801484,36.5096094 C15.925,36.0160703 16.9134531,35.879 17.8602266,36.1268438 C18.9525357,36.4119373 19.8433174,37.183795 20.2898593,38.1995445 L21.858141,38.2002347 C21.2897355,36.2610537 19.6205942,34.8094172 17.5611641,34.5553047 Z M17.4898359,37.5465313 C16.9215312,37.3976875 16.3283047,37.4790703 15.8215312,37.7760703 C15.624253,37.8913862 15.4489838,38.0341678 15.2997032,38.1990818 L18.5648325,38.1994283 C18.2821227,37.8870555 17.9108538,37.6565994 17.4898359,37.5465313 Z M25.0000859,37.4666094 C24.4582015,37.4666094 23.98415,37.7618117 23.7302153,38.1998548 L26.2699378,38.1998166 C26.0159839,37.7617731 25.5419128,37.4666094 25.0000859,37.4666094 Z M28.0792266,35.789625 C26.4399572,34.1835396 23.8514264,34.1231215 22.1389956,35.5896479 C22.446053,35.9818131 22.7085527,36.4098716 22.9206419,36.8667845 C23.4514667,36.3317458 24.1876267,36 25,36 C26.3646352,36 27.5142138,36.9361109 27.840662,38.2000009 L29.3377191,38.2005045 C29.1825694,37.2911787 28.7429159,36.4393898 28.0792266,35.789625 Z M29.6706172,33.283 C26.745033,30.8654625 22.4845546,31.1074913 19.8434831,33.7240621 C20.2990274,33.9474918 20.7245457,34.221359 21.112883,34.538725 C23.3198572,32.5837725 26.6691352,32.5745797 28.8869759,34.5390539 C29.2799014,34.2180702 29.7072629,33.946162 30.1599793,33.7267552 C30.0041766,33.571919 29.8407132,33.4237741 29.6706172,33.283 Z M25.0000859,28.6666953 C22.9373675,28.6666953 20.9500248,29.2811691 19.2688218,30.4180379 C19.8858882,30.5755415 20.4870522,30.7951408 21.0595861,31.071756 C24.0795963,29.5630504 27.8390181,29.8683822 30.6056172,32.1529219 C30.9945501,32.4751885 31.3546364,32.8290524 31.6819905,33.2104474 C32.0040682,33.1421494 32.3354817,33.0985882 32.6721562,33.0799297 C32.9058405,33.0666764 33.1383739,33.0656783 33.3690189,33.0766667 C31.8033694,30.3670503 28.6379321,28.6666953 25.0000859,28.6666953 L25.0000859,28.6666953 Z M8.082,3 C8.34307812,3 8.58507812,3.13930469 8.71630469,3.36514844 C8.84761719,3.59176563 8.84830469,3.87046094 8.71853906,4.09776563 C7.94123437,5.45669531 7.94123437,7.14407813 8.71853906,8.50292188 C9.75253906,10.3106172 9.75253906,12.5567656 8.71853906,14.3644609 C7.94123437,15.7233906 7.94123437,17.4107734 8.71853906,18.7696172 C9.75253906,20.5772266 9.75253906,22.8234609 8.71853906,24.6312422 C7.94123437,25.9893984 7.94123437,27.6782422 8.71853906,29.0363984 C9.00161719,29.6487031 9.21646094,30.2214766 9.38661719,30.7993203 L9.38661719,30.7993203 L7.98007812,31.213625 C7.8296875,30.7032422 7.63976562,30.1950078 7.41538281,29.7051641 C6.41146094,27.9561641 6.41146094,25.7107031 7.44546094,23.9023203 C8.22276562,22.5433906 8.22276562,20.8560078 7.44546094,19.4971641 C6.41146094,17.6894688 6.41146094,15.4433203 7.44546094,13.635625 C7.51438269,13.5151319 7.57719332,13.3920566 7.63389281,13.266857 L5.93330469,13.2666953 L5.93330469,11.8 L8.01333224,11.8004591 C8.05377436,11.3095492 8.01301858,10.8131199 7.89106489,10.3333526 L5.93330469,10.3333906 L5.93330469,8.86669531 L7.25427127,8.86727656 C7.02794582,8.39795385 6.86742904,7.90436798 6.77267349,7.40059625 L5.93330469,7.4 L5.93330469,5.93330469 L6.68156391,5.93383629 C6.71218923,5.43731624 6.80501583,4.94394817 6.96,4.46669531 L6.96,4.46669531 L5.93330469,4.46669531 L5.93330469,3 Z M17.9196953,3 C18.8972344,3 19.8175391,3.38061719 20.5097656,4.07215625 L20.5097656,4.07215625 L21.6281562,5.19046094 L42.9967734,4.562 C45.1446953,4.51946094 46.9383828,6.20022656 46.9985391,8.346 L46.9985391,8.346 L46.9999141,8.44878125 C46.9984531,10.5952422 45.2516875,12.3405469 43.1059141,12.3405469 C43.0612266,12.3368516 42.9548359,12.3383125 42.8786094,12.3339297 L42.8786094,12.3339297 L21.6193047,11.0843125 L20.5097656,12.1938516 C19.8175391,12.8853906 18.8971484,13.2666953 17.9189219,13.2666953 L17.9189219,13.2666953 L15.1757631,13.2671437 C15.0508441,13.6482546 14.8871569,14.0158652 14.6863828,14.3652344 C13.9098516,15.7233906 13.9098516,17.4107734 14.6871562,18.7696172 C15.7211562,20.5773125 15.7211562,22.8234609 14.6870703,24.6312422 C13.9676875,25.8947812 13.9105391,27.4340078 14.5367656,28.7481641 L14.5367656,28.7481641 L13.2130703,29.3780859 C12.3815391,27.6320078 12.4563047,25.5852344 13.4133047,23.9044687 C14.1913828,22.5448516 14.1913828,20.8566953 13.4140781,19.4978516 C12.3800781,17.6901562 12.3800781,15.4440078 13.4140781,13.6363125 C13.4832269,13.5158946 13.5464781,13.3926755 13.6037391,13.2669911 L12.24,13.2666953 C12.1175391,13.6450781 11.9554609,14.0124609 11.7545391,14.3644609 C10.9772344,15.7233906 10.9772344,17.4107734 11.7545391,18.7696172 C12.7885391,20.5773125 12.7885391,22.8234609 11.7545391,24.6311562 C10.9772344,25.9893125 10.9772344,27.6781562 11.7545391,29.0363125 C11.888,29.2695469 12.0067656,29.5151562 12.1065391,29.7652344 L12.1065391,29.7652344 L10.7454609,30.3108516 C10.6699219,30.1223906 10.5819219,29.9397734 10.4814609,29.7637734 C9.44746094,27.9560781 9.44746094,25.7106172 10.4814609,23.9022344 C11.2587656,22.5433047 11.2587656,20.8559219 10.4814609,19.4970781 C9.44746094,17.6893828 9.44746094,15.4432344 10.4814609,13.6355391 C11.2587656,12.2766953 11.2587656,10.5892266 10.4814609,9.23038281 C9.44746094,7.4226875 9.44746094,5.17653906 10.4814609,3.36884375 C10.612,3.14076562 10.8547734,3 11.118,3 L11.118,3 Z M17.9189219,4.46669531 L11.5659922,4.46669531 C11.3544583,4.93396802 11.2280912,5.43094138 11.1868538,5.93371351 L16.2,5.93330469 L16.2,7.4 L11.3095407,7.40091342 C11.4065682,7.78231938 11.5548781,8.15315387 11.7544531,8.50223437 C11.8227147,8.62163638 11.886466,8.74294101 11.9457083,8.8658967 L16.2,8.86669531 L16.2,10.3333906 L12.4272959,10.3331695 C12.5183107,10.8169663 12.5487277,11.3100479 12.5186094,11.8 L12.5186094,11.8 L17.9181484,11.8 C18.5063047,11.8 19.0577656,11.5711484 19.4728437,11.1568437 L19.4728437,11.1568437 L20.8148437,9.81484375 C20.963,9.6666875 21.1676172,9.58607812 21.3766172,9.60146094 L21.3766172,9.60146094 L42.9660078,10.8700703 C43.0129297,10.8723047 43.0488516,10.8613047 43.1053125,10.8737656 C44.4428437,10.8737656 45.5318437,9.78622656 45.5333047,8.44792187 C45.4944609,7.04946094 44.4076953,5.99053906 43.0385391,6.02792187 L43.0385391,6.02792187 L21.3546172,6.66669531 C21.1566172,6.67838281 20.9570703,6.59476562 20.8148437,6.45253906 L20.8148437,6.45253906 L19.4728437,5.11053906 C19.0577656,4.69546094 18.5056172,4.46669531 17.9189219,4.46669531 L17.9189219,4.46669531 Z" id="Combined-Shape" fill="#A1A2A5" fill-rule="nonzero"></path>
    </g>
</svg>