<?xml version="1.0" encoding="UTF-8"?>
<svg width="50px" height="50px" viewBox="0 0 50 50" version="1.1" xmlns="http://www.w3.org/2000/svg" xmlns:xlink="http://www.w3.org/1999/xlink">
    <title>Import</title>
    <g id="Import" stroke="none" stroke-width="1" fill="none" fill-rule="evenodd">
        <path d="M25.4833333,5.08979167 C36.3,5.33979167 45,14.223125 45,25.073125 C45,26.0397917 44.95,26.9064583 44.8333333,27.7397917 C44.7666667,28.2064583 44.35,28.523125 43.8833333,28.4564583 C43.4333333,28.3897917 43.1166667,27.973125 43.1833333,27.5064583 C43.25,27.0064583 43.3,26.473125 43.3166667,25.9064583 L38.4833333,25.9064583 C38.0166667,25.9064583 37.65,25.5397917 37.65,25.073125 C37.65,24.623125 38.0166667,24.2397917 38.4833333,24.2397917 L43.3166667,24.2397917 C43.1403846,20.4256891 41.8084073,16.9351812 39.6615167,14.0794167 L39.4,13.7397917 L39.4,13.7397917 C37.8,14.5564583 35.9166667,15.2397917 33.8666667,15.7397917 C34.4,17.7897917 34.7666667,20.073125 34.9166667,22.523125 C34.95,22.9897917 34.6,23.3897917 34.1333333,23.4064583 C33.7,23.4397917 33.2833333,23.0897917 33.25,22.623125 C33.1,20.273125 32.75,18.0564583 32.2166667,16.073125 L32.7666667,15.9681867 L32.7666667,15.9681867 L32.2166667,16.073125 L32.2166667,16.073125 C30.2,16.473125 28.05,16.6897917 25.8333333,16.723125 L25.8333333,24.2397917 L29.6,24.2397917 C30.0666667,24.2397917 30.4333333,24.623125 30.4333333,25.073125 C30.4333333,25.5397917 30.0666667,25.9064583 29.6,25.9064583 L25.8333333,25.9064583 L25.8333333,29.673125 C25.8333333,30.1397917 25.4666667,30.5064583 25,30.5064583 C24.5333333,30.5064583 24.1666667,30.1397917 24.1666667,29.673125 L24.1666667,25.9064583 L16.6833333,25.9064583 C16.7294872,28.6141506 17.0738659,31.1940323 17.6378167,33.5019067 L17.7833333,34.073125 L17.7833333,34.073125 L17.8890625,34.4921354 L17.8890625,34.4921354 L17.7833333,34.073125 L17.7833333,34.073125 C18.8166667,33.8897917 19.8833333,33.723125 20.9833333,33.623125 C21.45,33.573125 21.85,33.9064583 21.9,34.3564583 C21.95,34.823125 21.6,35.223125 21.15,35.273125 C20.15,35.373125 19.1833333,35.5064583 18.25,35.6897917 L18.1255208,35.2989062 L18.1255208,35.2989062 L18.25,35.6897917 L18.25,35.6897917 C19.6333333,39.8564583 21.7666667,42.7564583 24.1666667,43.3064583 L24.1666667,42.1397917 C24.1666667,41.6897917 24.5333333,41.3064583 25,41.3064583 C25.4666667,41.3064583 25.8333333,41.6897917 25.8333333,42.1397917 L25.8333333,43.3897917 L25.8333333,43.3897917 C26.1833333,43.373125 26.55,43.3564583 26.9166667,43.323125 C27.3833333,43.273125 27.7833333,43.6064583 27.8333333,44.0564583 C27.8666667,44.523125 27.5333333,44.923125 27.0833333,44.973125 C26.3833333,45.0397917 25.7,45.073125 25,45.073125 L25.1057958,45.0667375 C25.0712032,45.0709554 25.0358974,45.073125 25,45.073125 L24.945679,45.0725077 L24.945679,45.0725077 L25,45.073125 L25,45.073125 C18.9333333,45.073125 13.4833333,42.3564583 9.81666667,38.073125 L9.89691358,38.1424923 L9.89691358,38.1424923 L9.81666667,38.073125 L9.81666667,38.073125 L9.805,38.060125 L9.81666667,38.073125 C9.8,38.0564583 9.78333333,38.0379398 9.76728395,38.0181867 L9.74557312,37.9901841 L9.74557312,37.9901841 L9.81666667,38.073125 C6.81666667,34.5897917 5,30.0397917 5,25.073125 C5,14.1712153 13.7808341,5.26049841 24.6558889,5.07604141 L24.94,5.073125 L24.8876543,5.07806327 C24.9067901,5.07559414 24.9265432,5.07435957 24.945679,5.07374228 L25,5.073125 C25.1666667,5.073125 25.3166667,5.073125 25.4833333,5.08979167 Z M34.4833333,26.8064583 C34.8,26.9397917 35,27.2397917 35,27.573125 L35,31.7397917 L43.3333333,31.7397917 C44.25,31.7397917 45,32.4897917 45,33.4064583 L45,38.4064583 C45,39.323125 44.25,40.073125 43.3333333,40.073125 L35,40.073125 L35,44.2397917 C35,44.5897917 34.8,44.8897917 34.4833333,45.023125 C34.3833333,45.0564583 34.2666667,45.073125 34.1666667,45.073125 C33.95,45.073125 33.7333333,44.9897917 33.5833333,44.8397917 L25.25,36.5064583 C24.9166667,36.173125 24.9166667,35.6564583 25.25,35.323125 L33.5833333,26.9897917 C33.8166667,26.7564583 34.1666667,26.673125 34.4833333,26.8064583 Z M16.6,36.0397917 C14.98,36.4147917 13.4815,36.9112917 12.16525,37.5171417 L11.7333333,37.723125 L11.7333333,37.723125 L11.4551492,37.8607529 C11.5466982,37.8136978 11.6392806,37.7676763 11.7333333,37.723125 C14.0333333,40.1397917 16.9833333,41.923125 20.3,42.7897917 C18.7833333,41.223125 17.5166667,38.8897917 16.6,36.0397917 Z M33.3333333,29.5897917 L27.0166667,35.9064583 L33.3333333,42.2397917 L33.3333333,39.2397917 C33.3333333,38.7897917 33.7,38.4064583 34.1666667,38.4064583 L43.3333333,38.4064583 L43.3333333,33.4064583 L34.1666667,33.4064583 C33.7,33.4064583 33.3333333,33.0397917 33.3333333,32.573125 L33.3333333,29.5897917 Z M10.3384833,36.0833568 L10.6,36.423125 L10.6,36.423125 C12.1833333,35.6064583 14.0666667,34.9397917 16.1333333,34.4397917 C15.4666667,31.9064583 15.0666667,29.0064583 15.0166667,25.9064583 L6.68333333,25.9064583 C6.85961538,29.7045353 8.1915927,33.2252453 10.3384833,36.0833568 Z M17.7833333,16.073125 C17.1333333,18.523125 16.7333333,21.3064583 16.6833333,24.2397917 L24.1666667,24.2397917 L24.1666667,16.723125 C21.95,16.6897917 19.8,16.473125 17.7833333,16.073125 Z M24.1666667,6.83979167 C21.7666667,7.38979167 19.6166667,10.3064583 18.25,14.473125 L18.25,14.473125 C20.1166667,14.823125 22.1166667,15.023125 24.1666667,15.0564583 L24.1666667,6.83979167 Z M25.8333333,6.83979167 L25.8333333,15.0564583 L25.8333333,15.0564583 C27.8833333,15.023125 29.8666667,14.823125 31.7333333,14.473125 C30.3666667,10.2897917 28.2,7.40645833 25.8333333,6.83979167 Z M11.7333333,12.4397917 C13.15,13.123125 14.8,13.6897917 16.6,14.123125 L16.4815526,14.4726828 C16.5196148,14.3552043 16.5589727,14.2387473 16.6,14.123125 L16.6,14.123125 C17.5166667,11.2564583 18.7833333,8.923125 20.3,7.35645833 C17.1275362,8.18544384 14.2905482,9.8683676 12.0369962,12.1280975 L11.7333333,12.4397917 L11.7333333,12.4397917 Z M29.7,7.35645833 L29.7,7.35645833 C31.1324074,8.83608796 32.341821,10.9995653 33.2439986,13.6503255 L33.4,14.123125 L33.4,14.123125 C35.2,13.6897917 36.85,13.123125 38.2666667,12.4397917 C35.9666667,10.023125 33.0166667,8.223125 29.7,7.35645833 L29.4634969,7.11292399 C29.5430339,7.1919401 29.621875,7.273125 29.7,7.35645833 Z M15.0166667,24.2397917 C15.0666667,21.1564583 15.4666667,18.273125 16.1166667,15.7397917 C14.2530303,15.2852462 12.5409091,14.6929597 11.0429126,13.9629322 L10.6,13.7397917 L10.6,13.7397917 C8.3,16.6564583 6.86666667,20.273125 6.68333333,24.2397917 L15.0166667,24.2397917 L15.0166667,24.2397917 Z" id="Combined-Shape" fill="#9E0404" fill-rule="nonzero"></path>
    </g>
</svg>