<?xml version="1.0" encoding="UTF-8"?>
<svg width="50px" height="50px" viewBox="0 0 50 50" version="1.1" xmlns="http://www.w3.org/2000/svg" xmlns:xlink="http://www.w3.org/1999/xlink">
    <title>Media &amp; Recreation</title>
    <g id="Media-&amp;-Recreation" stroke="none" stroke-width="1" fill="none" fill-rule="evenodd">
        <path d="M38.9238281,11 C40.6200293,11 42,12.3799707 42,14.0761719 L42,14.0761719 L42,36.6347656 C42,38.3309668 40.6200293,39.7109375 38.9238281,39.7109375 L38.9238281,39.7109375 L10.0761719,39.7109375 C8.3799707,39.7109375 7,38.3309668 7,36.6347656 L7,36.6347656 L7,14.0761719 C7,12.3799707 8.3799707,11 10.0761719,11 L10.0761719,11 Z M38.9238281,13.0507812 L10.0761719,13.0507812 C9.51077148,13.0507812 9.05078125,13.5107715 9.05078125,14.0761719 L9.05078125,14.0761719 L9.05078125,36.6347656 C9.05078125,37.200166 9.51077148,37.6601562 10.0761719,37.6601562 L10.0761719,37.6601562 L38.9238281,37.6601562 C39.4892285,37.6601562 39.9492188,37.200166 39.9492188,36.6347656 L39.9492188,36.6347656 L39.9492188,14.0761719 C39.9492188,13.5107715 39.4892285,13.0507812 38.9238281,13.0507812 L38.9238281,13.0507812 Z M16.296875,29.4570312 C17.6336426,29.4570312 18.7733984,30.3143945 19.1966797,31.5078125 L19.1966797,31.5078125 L36.8730469,31.5078125 C37.4393359,31.5078125 37.8984375,31.9669141 37.8984375,32.5332031 C37.8984375,33.0994922 37.4393359,33.5585938 36.8730469,33.5585938 L36.8730469,33.5585938 L19.1966797,33.5585938 C18.7733984,34.7520117 17.6336426,35.609375 16.296875,35.609375 C14.9601074,35.609375 13.8203516,34.7520117 13.3970703,33.5585938 L13.3970703,33.5585938 L12.1269531,33.5585938 C11.5606641,33.5585938 11.1015625,33.0994922 11.1015625,32.5332031 C11.1015625,31.9669141 11.5606641,31.5078125 12.1269531,31.5078125 L12.1269531,31.5078125 L13.3970703,31.5078125 C13.8203516,30.3143945 14.9601074,29.4570312 16.296875,29.4570312 Z M16.296875,31.5078125 C15.7314746,31.5078125 15.2714844,31.9678027 15.2714844,32.5332031 C15.2714844,33.0986035 15.7314746,33.5585938 16.296875,33.5585938 C16.8622754,33.5585938 17.3222656,33.0986035 17.3222656,32.5332031 C17.3222656,31.9678027 16.8622754,31.5078125 16.296875,31.5078125 Z M19.8593555,17.3054687 C20.1616406,17.1185742 20.5391895,17.1016211 20.8569922,17.2605566 L20.8569922,17.2605566 L29.0601172,21.3621191 C29.4075195,21.5358887 29.6269531,21.8908789 29.6269531,22.2792969 C29.6269531,22.6677148 29.4075195,23.0227051 29.0601172,23.1964746 L29.0601172,23.1964746 L20.8569922,27.2980371 C20.5398047,27.4566309 20.1621875,27.440293 19.8593555,27.253125 C19.5570703,27.0662988 19.3730469,26.7362598 19.3730469,26.3808594 L19.3730469,26.3808594 L19.3730469,18.1777344 C19.3730469,17.822334 19.5570703,17.4922949 19.8593555,17.3054687 Z M21.4238281,19.8368848 L21.4238281,24.721709 L26.3087207,22.2792969 L21.4238281,19.8368848 Z" id="Combined-Shape" fill="#A1A2A5" fill-rule="nonzero"></path>
    </g>
</svg>