<?xml version="1.0" encoding="UTF-8"?>
<svg width="50px" height="50px" viewBox="0 0 50 50" version="1.1" xmlns="http://www.w3.org/2000/svg" xmlns:xlink="http://www.w3.org/1999/xlink">
    <title>Muslim-Friendly Travel</title>
    <g id="Muslim-Friendly-Travel" stroke="none" stroke-width="1" fill="none" fill-rule="evenodd">
        <path d="M8.24521381,27.7654494 C7.86642755,27.9431635 7.69930894,28.3905791 7.8681132,28.7729774 L9.59829687,32.4871532 C9.68330101,32.6720914 9.83837947,32.8160928 10.029097,32.8871303 C10.1126563,32.9174717 10.2012725,32.933124 10.2903704,32.933124 C10.401863,32.9340872 10.5119109,32.9102475 10.6132898,32.8642538 L23.6856283,26.758403 L22.5015902,39.1384272 C22.4787137,39.3821218 22.5726277,39.6217228 22.754917,39.7845069 C23.3280328,40.2588927 24.0422604,40.5290759 24.7853845,40.5533972 C24.9903095,40.5533972 25.1940306,40.5273902 25.3926947,40.4768212 C26.4539222,40.1998955 27.2767527,39.2542544 27.838069,37.6391755 L32.9823856,22.4063349 L43.1708437,17.6538081 C46.1698288,16.2544905 47.7153151,13.4170855 46.6774456,11.2024022 C46.0884367,10.0448528 44.9602654,9.25742049 43.6707548,9.10306453 C42.2379653,8.88682163 40.7736303,9.11221508 39.4723202,9.74938506 L27.7147769,15.2626148 L15.0734794,10.3181664 C13.4815178,9.71856202 12.220663,9.73397354 11.3364272,10.3723475 C10.594507,10.9811025 10.1723759,11.8961613 10.1904363,12.8557691 C10.1981421,13.099223 10.3207118,13.3243756 10.5210615,13.4635609 L19.0332763,19.3151215 L14.1584205,21.6220331 L5.98405515,19.5455719 C5.64909542,19.4632166 5.30040983,19.6142013 5.13064234,19.9147259 L3.09319154,23.5824263 C2.98747814,23.776756 2.97086261,24.0074471 3.04767941,24.215021 C3.12401457,24.4228357 3.28631709,24.5873055 3.49316857,24.6667711 L9.5448382,27.1660859 L8.24521381,27.7654494 Z M11.7665048,12.4714444 C11.8117761,12.1463577 11.9762459,11.8504084 12.2281279,11.6409081 C12.6666338,11.3254535 13.4663471,11.3716881 14.5350395,11.7714243 L25.7926717,16.1622621 L20.6558201,18.561402 L11.7665048,12.4714444 Z M4.84625169,23.5749614 L6.18416409,21.1989388 L14.0505399,23.1518671 C14.2200666,23.1947304 14.3989847,23.1785964 14.5583976,23.1061142 L40.1261057,11.1641142 C41.1425435,10.6627583 42.2873303,10.4802281 43.4094814,10.6410859 C44.1964321,10.7135681 44.8974153,11.1677263 45.2858337,11.8559469 C45.931191,13.2403346 44.6626305,15.2626148 42.5170582,16.2621962 L33.6588068,20.4148778 L34.1972466,18.8226754 C34.3333015,18.4130661 34.1110385,17.9704666 33.7014292,17.8346526 C33.2913384,17.6988386 32.8489796,17.9211016 32.7131656,18.3307108 L26.3845703,37.1621409 C26.0077105,38.2313149 25.5386224,38.8696888 25.0158348,39.0076701 C24.6919522,39.0700386 24.3567517,39.0064661 24.0776587,38.83116 L25.61568,22.682779 C25.6558945,22.2582398 25.3445337,21.8813801 24.9195129,21.8411657 C24.4949737,21.8004696 24.1181139,22.112312 24.0776587,22.5368512 L23.8395026,25.0051021 L10.6438721,31.1567058 L9.56024972,28.8497942 L11.7282168,27.8350421 C12.0073098,27.7119907 12.1871911,27.4360282 12.1871911,27.13141 C12.1871911,26.8265509 12.0073098,26.5505884 11.7282168,26.4277778 L4.84625169,23.5749614 Z" id="Shape" fill="#A1A2A5" fill-rule="nonzero"></path>
    </g>
</svg>