<?xml version="1.0" encoding="UTF-8"?>
<svg width="50px" height="50px" viewBox="0 0 50 50" version="1.1" xmlns="http://www.w3.org/2000/svg" xmlns:xlink="http://www.w3.org/1999/xlink">
    <title>Export</title>
    <g id="Export" stroke="none" stroke-width="1" fill="none" fill-rule="evenodd">
        <path d="M5,25.073125 C5,14.1712153 13.7808341,5.26049841 24.6558889,5.07604141 L25,5.073125 L25,5.073125 C25.1666667,5.073125 25.3166667,5.073125 25.4833333,5.08979167 C36.3,5.33979167 45,14.223125 45,25.073125 C45,26.3397917 44.8833333,27.5564583 44.6666667,28.6897917 C44.5833333,29.1397917 44.15,29.4397917 43.7,29.3397917 C43.2333333,29.2564583 42.95,28.823125 43.0333333,28.373125 C43.1833333,27.5897917 43.2833333,26.773125 43.3166667,25.9064583 L40.4,25.9064583 C39.9333333,25.9064583 39.5666667,25.5397917 39.5666667,25.073125 C39.5666667,24.623125 39.9333333,24.2397917 40.4,24.2397917 L43.3166667,24.2397917 C43.1403846,20.4256891 41.8084073,16.9351812 39.6615167,14.0794167 L39.4,13.7397917 L39.4,13.7397917 C37.8,14.5564583 35.9166667,15.2397917 33.8666667,15.7397917 C34.4333333,17.8897917 34.8,20.273125 34.9333333,22.8564583 C34.95,23.3064583 34.6,23.7064583 34.15,23.723125 C33.7,23.7397917 33.2833333,23.4064583 33.2666667,22.9397917 C33.1333333,20.473125 32.7666667,18.1397917 32.2166667,16.073125 C30.2,16.473125 28.05,16.6897917 25.8333333,16.723125 L25.8333333,24.2397917 L31.5166667,24.2397917 C31.9833333,24.2397917 32.35,24.623125 32.35,25.073125 C32.35,25.5397917 31.9833333,25.9064583 31.5166667,25.9064583 L25.8333333,25.9064583 L25.8333333,27.573125 C25.8333333,28.0397917 25.4666667,28.4064583 25,28.4064583 C24.5333333,28.4064583 24.1666667,28.0397917 24.1666667,27.573125 L24.1666667,25.9064583 L16.6833333,25.9064583 C16.7294872,28.6141506 17.0738659,31.1940323 17.6378167,33.5019067 L17.7833333,34.073125 L17.7833333,34.073125 C18.75,33.8897917 19.7333333,33.7397917 20.75,33.6397917 C21.2166667,33.573125 21.6166667,33.923125 21.6666667,34.373125 C21.7166667,34.8397917 21.3833333,35.2397917 20.9166667,35.2897917 C20,35.3897917 19.1166667,35.523125 18.25,35.6897917 L17.828125,35.7582813 L17.828125,35.7582813 L18.25,35.6897917 L18.25,35.6897917 C19.7833333,40.323125 22.2666667,43.4064583 25,43.4064583 L24.4580247,43.3984794 L24.4580247,43.3984794 L25,43.4064583 L25,43.4064583 C25.4666667,43.4064583 25.8333333,43.7897917 25.8333333,44.2397917 C25.8333333,44.7064583 25.4666667,45.073125 25,45.073125 C18.9333333,45.073125 13.4833333,42.3564583 9.81666667,38.073125 L9.89691358,38.1424923 L9.89691358,38.1424923 L9.81666667,38.073125 L9.81666667,38.073125 C9.76666667,38.023125 9.71666667,37.9564583 9.66666667,37.8897917 C6.75,34.423125 5,29.9564583 5,25.073125 Z M36.4166667,26.9897917 L44.75,35.323125 C45.0833333,35.6397917 45.0833333,36.173125 44.75,36.5064583 L36.4166667,44.8397917 C36.2666667,44.9897917 36.05,45.073125 35.8333333,45.073125 C35.7333333,45.073125 35.6166667,45.0564583 35.5166667,45.023125 C35.2,44.8897917 35,44.5897917 35,44.2397917 L35,40.073125 L26.6666667,40.073125 C25.75,40.073125 25,39.323125 25,38.4064583 L25,33.4064583 C25,32.4897917 25.75,31.7397917 26.6666667,31.7397917 L35,31.7397917 L35,27.573125 C35,27.2397917 35.2,26.9397917 35.5166667,26.8064583 C35.8333333,26.673125 36.1833333,26.7564583 36.4166667,26.9897917 Z M17.003125,35.9265104 L16.6,36.023125 L16.6,36.023125 L16.6,36.023125 C15,36.4083102 13.5185185,36.9120139 12.2140832,37.4991195 L11.7333333,37.723125 L11.7333333,37.723125 L11.4685024,37.8524591 C11.556294,37.8082881 11.6448136,37.7650554 11.7333333,37.723125 C13.9333333,40.0347192 16.7280403,41.7668553 19.869494,42.671573 L20.3,42.7897917 L20.3,42.7897917 L20.8024691,42.9162892 L20.8024691,42.9162892 L20.3,42.7897917 L20.3,42.7897917 C18.7833333,41.223125 17.5166667,38.8897917 16.6,36.023125 L17.003125,35.9265104 L17.003125,35.9265104 Z M36.6666667,29.5897917 L36.6666667,32.573125 C36.6666667,33.0397917 36.3,33.4064583 35.8333333,33.4064583 L26.6666667,33.4064583 L26.6666667,38.4064583 L35.8333333,38.4064583 C36.3,38.4064583 36.6666667,38.7897917 36.6666667,39.2397917 L36.6666667,42.2397917 L42.9833333,35.9064583 L36.6666667,29.5897917 Z M10.6,36.423125 C12.1833333,35.6064583 14.0666667,34.923125 16.1333333,34.4397917 C15.4666667,31.9064583 15.0666667,29.0064583 15.0166667,25.9064583 L6.68333333,25.9064583 C6.86666667,29.8564583 8.3,33.5064583 10.6,36.423125 Z M17.7833333,16.073125 C17.1333333,18.523125 16.7333333,21.3064583 16.6833333,24.2397917 L24.1666667,24.2397917 L24.1666667,16.723125 C21.95,16.6897917 19.8,16.473125 17.7833333,16.073125 Z M24.1666667,6.83979167 C21.7666667,7.38979167 19.6166667,10.3064583 18.25,14.473125 L18.25,14.473125 C20.1166667,14.823125 22.1166667,15.023125 24.1666667,15.0564583 L24.1666667,6.83979167 Z M25.8333333,6.83979167 L25.8333333,15.0564583 L25.8333333,15.0564583 C27.8833333,15.023125 29.8833333,14.823125 31.75,14.473125 C30.3833333,10.2897917 28.2333333,7.38979167 25.8333333,6.83979167 Z M11.7333333,12.4397917 C13.15,13.123125 14.8,13.6897917 16.6,14.123125 L16.4815526,14.4726828 C16.5196148,14.3552043 16.5589727,14.2387473 16.6,14.123125 L16.6,14.123125 C17.5166667,11.2564583 18.7833333,8.923125 20.3,7.35645833 C17.1275362,8.18544384 14.2905482,9.8683676 12.0369962,12.1280975 L11.7333333,12.4397917 L11.7333333,12.4397917 Z M29.7166667,7.35645833 C31.1333333,8.83608796 32.3567387,10.9995653 33.2464792,13.6503255 L33.4,14.123125 L33.4,14.123125 C35.2,13.6897917 36.85,13.123125 38.2666667,12.4397917 C35.9666667,10.023125 33.0333333,8.23979167 29.7166667,7.35645833 Z M15.0166667,24.2397917 C15.0666667,21.1564583 15.4666667,18.273125 16.1166667,15.7397917 C14.2530303,15.2852462 12.5409091,14.6929597 11.0429126,13.9629322 L10.6,13.7397917 L10.6,13.7397917 C8.3,16.6564583 6.86666667,20.273125 6.68333333,24.2397917 L15.0166667,24.2397917 L15.0166667,24.2397917 Z" id="Combined-Shape" fill="#5AAB00" fill-rule="nonzero"></path>
    </g>
</svg>