<?xml version="1.0" encoding="UTF-8"?>
<svg width="165px" height="30px" viewBox="0 0 165 30" version="1.1" xmlns="http://www.w3.org/2000/svg" xmlns:xlink="http://www.w3.org/1999/xlink">
    <title>H - Salaam Gateway Logo </title>
    <g id="Dashboard" stroke="none" stroke-width="1" fill="none" fill-rule="evenodd">
        <g id="H---Salaam-Gateway-Logo-">
            <path d="M43.9333333,8.32992424 C46.2443182,8.32992424 47.8575758,9.32045455 48.169697,12.0162879 L46.9958333,12.1632576 C46.7390152,10.8791667 46.2257576,9.43030303 43.9882576,9.43030303 C41.6958333,9.43030303 40.907197,10.4757576 40.907197,11.7962121 C40.907197,13.5999554 42.5317749,14.09595 44.2519163,14.610547 L44.6830577,14.7403514 C46.4804019,15.2892141 48.2431818,15.9781937 48.2431818,18.3064394 C48.2431818,21.0208333 46.0973485,22.0662879 43.7132576,22.0662879 C40.7787879,22.0662879 39.3848485,20.7825758 39,18.3799242 L40.2287879,18.1965909 C40.5772727,19.682197 41.3106061,21.0026515 43.7132576,21.0026515 C45.2356061,21.0026515 46.9409091,20.4704545 46.9409091,18.4715909 C46.9409091,14.4371212 39.6049242,16.8579545 39.6049242,11.8511364 C39.6049242,9.70568182 41.4208333,8.32992424 43.9333333,8.32992424 Z M53.3731061,12.2916667 C55.6102273,12.2916667 56.5643939,13.1715909 56.5643939,15.5007576 L56.5643939,20.3420455 C56.5643939,20.8556818 56.6556818,21.0757576 57.1325758,21.0757576 C57.2977273,21.0757576 57.4628788,21.0390152 57.7011364,20.9655303 L57.7746212,21.7541667 C57.4075758,21.9378788 57.0776515,22.0109848 56.6556818,22.0109848 C55.7939394,22.0109848 55.4818182,21.4791667 55.4454545,20.8375 C54.7484848,21.5712121 53.6481061,22.0662879 52.3276515,22.0662879 C49.9435606,22.0662879 49.5587121,20.4340909 49.5587121,19.5352273 C49.5587121,16.8765152 51.9791667,16.3810606 54.1064394,16.3810606 C54.6386364,16.3810606 54.9685606,16.3996212 55.3356061,16.417803 L55.3356061,15.4825758 C55.3356061,14.0518939 54.9318182,13.2818182 53.3,13.2818182 C51.8143939,13.2818182 51.3007576,13.8685606 51.0988636,14.9689394 L49.9435606,14.7674242 C50.2371212,13.025 51.3742424,12.2916667 53.3731061,12.2916667 Z M65.9674242,12.2916667 C68.2045455,12.2916667 69.1587121,13.1715909 69.1587121,15.5007576 L69.1587121,20.3420455 C69.1587121,20.8556818 69.25,21.0757576 69.7268939,21.0757576 C69.8920455,21.0757576 70.057197,21.0390152 70.2954545,20.9655303 L70.3689394,21.7541667 C70.0018939,21.9378788 69.6719697,22.0109848 69.25,22.0109848 C68.3882576,22.0109848 68.0761364,21.4791667 68.0397727,20.8375 C67.342803,21.5712121 66.242803,22.0662879 64.9219697,22.0662879 C62.5378788,22.0662879 62.1530303,20.4340909 62.1530303,19.5352273 C62.1530303,16.8765152 64.5734848,16.3810606 66.7007576,16.3810606 C67.2329545,16.3810606 67.5628788,16.3996212 67.9299242,16.417803 L67.9299242,15.4825758 C67.9299242,14.0518939 67.5261364,13.2818182 65.8943182,13.2818182 C64.4087121,13.2818182 63.8950758,13.8685606 63.6931818,14.9689394 L62.5378788,14.7674242 C62.8314394,13.025 63.9685606,12.2916667 65.9674242,12.2916667 Z M75.1450758,12.2916667 C77.382197,12.2916667 78.3359848,13.1715909 78.3359848,15.5007576 L78.3359848,20.3420455 C78.3359848,20.8556818 78.4272727,21.0757576 78.9041667,21.0757576 C79.069697,21.0757576 79.2344697,21.0390152 79.4727273,20.9655303 L79.5465909,21.7541667 C79.1795455,21.9378788 78.8496212,22.0109848 78.4272727,22.0109848 C77.5655303,22.0109848 77.2537879,21.4791667 77.2170455,20.8375 C76.5200758,21.5712121 75.4204545,22.0662879 74.1,22.0662879 C71.7159091,22.0662879 71.3306818,20.4340909 71.3306818,19.5352273 C71.3306818,16.8765152 73.7515152,16.3810606 75.8784091,16.3810606 C76.4102273,16.3810606 76.7401515,16.3996212 77.107197,16.417803 L77.107197,15.4825758 C77.107197,14.0518939 76.7037879,13.2818182 75.0719697,13.2818182 C73.5863636,13.2818182 73.0731061,13.8685606 72.8712121,14.9689394 L71.7159091,14.7674242 C72.0090909,13.025 73.1462121,12.2916667 75.1450758,12.2916667 Z M60.3871212,8 L60.3871212,21.8462121 L59.1579545,21.8462121 L59.1579545,8 L60.3871212,8 Z M91.1465909,12.2916667 C93.1454545,12.2916667 93.7507576,13.4102273 93.7507576,15.5189394 L93.7507576,21.8462121 L92.5215909,21.8462121 L92.5215909,15.6473485 C92.5215909,14.2170455 92.2837121,13.3734848 90.8897727,13.3734848 C89.8257576,13.3734848 88.5973485,14.1068182 87.9738636,14.6204545 C88.0102273,14.8958333 88.0287879,15.207197 88.0287879,15.5189394 L88.0287879,21.8462121 L86.8,21.8462121 L86.8,15.6473485 C86.8,14.2170455 86.5617424,13.3734848 85.167803,13.3734848 C84.0488636,13.3734848 82.7287879,14.1988636 82.1602273,14.7121212 L82.1602273,21.8462121 L80.9314394,21.8462121 L80.9314394,12.4746212 L82.0132576,12.4746212 L82.0867424,13.6484848 C83.0954545,12.8965909 84.1227273,12.2916667 85.4246212,12.2916667 C86.7083333,12.2916667 87.4234848,12.7681818 87.7537879,13.6666667 C88.7625,12.9147727 89.8443182,12.2916667 91.1465909,12.2916667 Z M54.1984848,17.3530303 C52.9143939,17.3530303 50.8420455,17.444697 50.8420455,19.3518939 C50.8420455,20.2689394 51.1723485,21.0757576 52.6212121,21.0757576 C53.7030303,21.0757576 54.7670455,20.4704545 55.3534091,19.7920455 L55.3534091,17.4079545 C55.0602273,17.3712121 54.730303,17.3530303 54.1984848,17.3530303 Z M66.792803,17.3530303 C65.5087121,17.3530303 63.4363636,17.444697 63.4363636,19.3518939 C63.4363636,20.2689394 63.7666667,21.0757576 65.2155303,21.0757576 C66.2973485,21.0757576 67.3613636,20.4704545 67.9477273,19.7920455 L67.9477273,17.4079545 C67.6545455,17.3712121 67.3246212,17.3530303 66.792803,17.3530303 Z M75.9700758,17.3530303 C74.6863636,17.3530303 72.6143939,17.444697 72.6143939,19.3518939 C72.6143939,20.2689394 72.944697,21.0757576 74.3931818,21.0757576 C75.4753788,21.0757576 76.5386364,20.4704545 77.1253788,19.7920455 L77.1253788,17.4079545 C76.832197,17.3712121 76.5018939,17.3530303 75.9700758,17.3530303 Z" id="Combined-Shape" fill="#949598"></path>
            <g id="Group-12" transform="translate(98.750758, 8.000000)" fill="#8D8F8E">
                <path d="M9.75643939,11.6454545 C9.31628788,12.7640152 7.62916667,13.7359848 5.68522727,13.7359848 C1.68712121,13.7359848 -1.81188398e-13,10.9848485 -1.81188398e-13,7.02386364 C-1.81188398e-13,2.42083333 2.40265152,-2.30926389e-14 6.12537879,-2.30926389e-14 C8.85795455,-2.30926389e-14 10.6734848,1.22878788 10.9121212,4.3280303 L9.75643939,4.45643939 C9.49962121,1.9625 8.21628788,1.04545455 6.07045455,1.04545455 C3.08106061,1.04545455 1.2469697,3.19090909 1.2469697,6.91401515 C1.2469697,11.480303 3.35643939,12.7272727 5.88674242,12.7272727 C8.49090909,12.7272727 9.75643939,10.7833333 9.75643939,9.09621212 L9.75643939,7.72083333 L5.77689394,7.72083333 L5.77689394,6.63863636 L10.8753788,6.63863636 L10.8753788,13.5159091 L9.95833333,13.5159091 L9.75643939,11.6454545" id="Fill-7"></path>
                <path d="M18.4829545,9.07765152 C18.1897727,9.04128788 17.8598485,9.02272727 17.3276515,9.02272727 C16.0439394,9.02272727 13.9715909,9.11439394 13.9715909,11.0219697 C13.9715909,11.9390152 14.3018939,12.7454545 15.7503788,12.7454545 C16.8325758,12.7454545 17.8962121,12.1405303 18.4829545,11.4617424 L18.4829545,9.07765152 Z M19.6939394,12.0121212 C19.6939394,12.5257576 19.7852273,12.7454545 20.2621212,12.7454545 C20.4272727,12.7454545 20.5924242,12.7090909 20.8306818,12.6356061 L20.9041667,13.4242424 C20.5371212,13.6075758 20.207197,13.6810606 19.7852273,13.6810606 C18.9231061,13.6810606 18.6113636,13.1492424 18.5746212,12.507197 C17.8780303,13.2409091 16.7776515,13.7359848 15.457197,13.7359848 C13.0731061,13.7359848 12.6878788,12.1037879 12.6878788,11.205303 C12.6878788,8.54621212 15.1087121,8.05075758 17.2359848,8.05075758 C17.7681818,8.05075758 18.0981061,8.06931818 18.4647727,8.08787879 L18.4647727,7.15227273 C18.4647727,5.7219697 18.0613636,4.95151515 16.4291667,4.95151515 C14.9439394,4.95151515 14.430303,5.53863636 14.2284091,6.63863636 L13.0731061,6.43712121 C13.3662879,4.69469697 14.5034091,3.96136364 16.5026515,3.96136364 C18.7397727,3.96136364 19.6939394,4.84166667 19.6939394,7.17083333 L19.6939394,12.0121212 L19.6939394,12.0121212 Z" id="Fill-8"></path>
                <path d="M27.0136364,13.1492424 C26.5549242,13.4609848 25.6378788,13.7359848 24.8863636,13.7359848 C23.2170455,13.7359848 22.3920455,12.9840909 22.3920455,11.2234848 L22.3920455,5.17159091 L20.925,5.17159091 L20.925,4.14469697 L22.3920455,4.14469697 L22.3920455,1.44886364 L23.6208333,1.2655303 L23.6208333,4.14469697 L26.2431818,4.14469697 L26.2431818,5.17159091 L23.6208333,5.17159091 L23.6208333,11.0583333 C23.6208333,12.1219697 23.8409091,12.7272727 25.0693182,12.7272727 C25.6378788,12.7272727 26.3348485,12.4890152 26.7382576,12.2503788 L27.0136364,13.1492424" id="Fill-9"></path>
                <path d="M34.1166667,8.08787879 C34.1530303,6.16212121 33.419697,5.025 31.6772727,5.025 C30.2469697,5.025 28.8530303,5.90530303 28.7613636,8.08787879 L34.1166667,8.08787879 Z M27.4412879,8.83939394 C27.4412879,5.41022727 29.4215909,3.96136364 31.7875,3.96136364 C34.355303,3.96136364 35.4003788,5.70340909 35.4003788,7.94090909 C35.382197,8.30795455 35.3640152,8.69280303 35.3087121,9.07765152 L28.7431818,9.07765152 C28.8166667,11.8837121 30.1185606,12.6356061 31.7511364,12.6356061 C33.2181818,12.6356061 33.8231061,12.030303 34.1166667,10.8568182 L35.2723485,11.0768939 C34.8685606,12.9291667 33.3829545,13.7359848 31.6590909,13.7359848 C28.394697,13.7359848 27.4412879,11.4253788 27.4412879,8.83939394 L27.4412879,8.83939394 Z" id="Fill-10"></path>
                <polyline id="Fill-11" points="38.9348485 13.5159091 35.9276515 4.14469697 37.192803 4.14469697 39.6867424 12.2689394 41.9056818 4.14469697 43.2443182 4.14469697 45.4268939 12.232197 47.9026515 4.14469697 49.0765152 4.14469697 46.1238636 13.5159091 44.6382576 13.5159091 42.5295455 5.52007576 40.4018939 13.5159091 38.9348485 13.5159091"></polyline>
                <path d="M55.3549242,9.07765152 C55.0617424,9.04128788 54.7318182,9.02272727 54.1996212,9.02272727 C52.9159091,9.02272727 50.8435606,9.11439394 50.8435606,11.0219697 C50.8435606,11.9390152 51.1738636,12.7454545 52.6223485,12.7454545 C53.7045455,12.7454545 54.7681818,12.1405303 55.3549242,11.4617424 L55.3549242,9.07765152 Z M56.5655303,12.0121212 C56.5655303,12.5257576 56.657197,12.7454545 57.1337121,12.7454545 C57.2992424,12.7454545 57.4640152,12.7090909 57.7022727,12.6356061 L57.7761364,13.4242424 C57.4090909,13.6075758 57.0791667,13.6810606 56.657197,13.6810606 C55.7950758,13.6810606 55.4833333,13.1492424 55.4465909,12.507197 C54.7496212,13.2409091 53.6496212,13.7359848 52.3291667,13.7359848 C49.9450758,13.7359848 49.5598485,12.1037879 49.5598485,11.205303 C49.5598485,8.54621212 51.9806818,8.05075758 54.1079545,8.05075758 C54.6397727,8.05075758 54.969697,8.06931818 55.3367424,8.08787879 L55.3367424,7.15227273 C55.3367424,5.7219697 54.9333333,4.95151515 53.3011364,4.95151515 C51.8155303,4.95151515 51.3022727,5.53863636 51.1003788,6.63863636 L49.9450758,6.43712121 C50.2382576,4.69469697 51.3753788,3.96136364 53.3746212,3.96136364 C55.6117424,3.96136364 56.5655303,4.84166667 56.5655303,7.17083333 L56.5655303,12.0121212 L56.5655303,12.0121212 Z" id="Fill-12"></path>
                <path d="M57.5344697,4.14469697 L58.8545455,4.14469697 L61.6056818,12.0670455 L64.4666667,4.14469697 L65.7136364,4.14469697 C64.5583333,7.22575758 63.1458333,10.9299242 61.9356061,14.0662879 C60.9454545,16.7439394 60.2670455,17.6056818 58.6344697,17.6056818 C57.9560606,17.6056818 57.2958333,17.4223485 56.9473485,17.2753788 L57.1310606,16.3219697 C57.4242424,16.4136364 58.1397727,16.5969697 58.6712121,16.5969697 C59.5515152,16.5969697 60.3037879,15.955303 60.982197,13.5893939 L57.5344697,4.14469697" id="Fill-13"></path>
            </g>
            <path d="M5.32135237,26.4541504 C7.60414412,28.1888254 12.7177178,28.4845785 14.8102962,28.5310247 C14.8770905,29.2188385 14.9535918,29.7165415 15.0374891,30 C12.9513822,29.9587904 10.9752893,29.6587114 9.7325464,29.1596423 C8.75189585,28.7320639 8.60120433,28.6662651 7.84404873,28.2457448 C6.78342999,27.5929933 6.56247738,27.4570699 5.63059357,26.7166626 L5.63059357,26.7166626 Z M1.23881379,20.8612523 C1.42671596,21.296344 1.87532371,21.7305251 2.6061314,22.1474026 C5.46603473,23.7782566 11.7564815,24.6331857 17.8518614,24.360428 C17.7804447,25.2310668 17.6916939,26.0190587 17.5879201,26.7152965 L17.5879201,26.7152965 L17.5962405,26.8828672 C12.1699588,27.1255714 6.56224626,26.1968748 4.01620657,24.745203 C3.52807696,24.4667534 3.181394,24.1796521 2.96806841,23.8898186 C2.76005863,23.5817709 2.4725429,23.1774157 2.2770137,22.8609439 C1.94535367,22.2721699 1.52702289,21.4727941 1.23881379,20.8612523 Z M0,15.585509 C0.00138673185,15.6096428 0.00416019556,15.6335489 0.00554692742,15.6576828 C0.0538514203,16.265354 0.563244255,16.8807664 1.58642124,17.4643038 C5.35602066,19.6138072 14.6441195,20.5149548 22.332392,19.4774284 C27.7367172,18.7479496 30.9118709,17.2546128 31.0121778,15.6852317 C30.9555529,16.2307471 30.8878342,16.9602258 30.7905318,17.4998215 L30.7905318,17.4998215 L30.6992387,17.9608685 C30.3832949,19.4359911 27.3052125,20.8182213 22.2031948,21.5067181 C14.6559067,22.5253473 5.53791366,21.6405924 1.83741971,19.5304773 C0.918709853,19.0065913 0.41994863,18.4562948 0.305543252,17.909641 L0.305543252,17.909641 L0.274838269,17.7279038 C0.254413935,17.6035919 0.234126561,17.4734109 0.214250071,17.3399919 L0.216965755,17.3553601 L0.216965755,17.3553601 L0.220028121,17.3707284 L0.220028121,17.3707284 L0.185,17.138 L0.213,17.334 L0.146516887,16.9395 C0.105001603,16.6713386 0.0708244404,16.400872 0.044332084,16.1282708 L0.0104004889,15.7177896 C0.0076270252,15.6902406 0.00439131754,15.6608702 0.00184897581,15.6340043 L0.00184897581,15.6340043 L0.00208009778,15.6344597 L0.000606695186,15.6097566 L0.000606695186,15.6097566 Z M0.459008244,10.9896107 C0.471026586,11.6025186 0.966783224,12.2247612 1.99920509,12.8135353 C4.37329002,14.1673058 9.0005831,15.0110786 13.9965157,15.1622565 C13.985653,15.5757189 13.9764081,15.9910026 13.9683188,16.4071971 C16.7219061,16.4905271 19.5859696,16.3666705 22.2545039,16.0067124 C24.7834406,15.6651961 26.8182385,15.1545155 28.2696845,14.5466165 C28.3170645,14.8817578 28.3551996,15.2187205 28.3838587,15.5570493 C26.9192388,16.1704125 24.8659511,16.6858744 22.3139023,17.0303505 C14.6519776,18.0642341 5.39577364,17.166274 1.63911705,15.0240562 C0.579191671,14.4195725 0.0704922026,13.7807093 0.0580116159,13.1518641 C0.0707233246,13.0350655 0.0845906431,12.9184946 0.100075815,12.8023791 C0.128503818,12.5879069 0.161323139,12.3748007 0.198996021,12.1630606 C0.269719346,11.7664464 0.356621209,11.3750688 0.459008244,10.9896107 Z M10.2407836,0.18380829 C11.4893045,-0.242631691 12.4671816,0.0658713387 13.8973644,1.18331257 C14.0376554,1.29305313 14.1816444,1.42556144 14.3265579,1.5708197 C15.046734,1.72564041 16.2638223,2.12066089 16.4907841,3.05072353 C16.8021054,4.32731134 16.8450941,4.87601415 16.8450941,4.87601415 C16.8450941,4.87601415 16.1501103,4.30818643 16.066213,4.22235201 C15.9102057,4.16110676 15.7833197,4.12012481 15.6654475,4.0898437 C15.0502008,4.0058307 14.408144,4.00059411 13.8173962,4.16497728 C12.8587022,4.43135997 12.3851333,5.38168591 12.0463085,6.22363735 C11.4299062,7.75454094 11.4851443,9.64494733 12.7433724,10.8600622 C13.167019,11.268971 13.699524,11.5654072 14.2562968,11.7600714 C16.5432488,11.8575174 18.9189516,11.7773749 21.1818668,11.4718317 C26.415624,10.765576 29.6825331,8.93664259 29.2221381,7.40892648 C29.547789,8.00088801 29.8325313,8.61766639 30.0731292,9.25607414 C30.5621833,10.8791871 27.5076753,12.4884118 21.9471117,13.2388369 C14.7062913,14.2162564 5.95832453,13.367247 2.40829099,11.3427385 C1.40660834,10.7714957 0.925643513,10.1679226 0.914087414,9.57345659 C1.1579211,8.92981226 1.44636132,8.30665891 1.77571014,7.70763938 L1.77571014,7.70763938 L1.77709687,7.71970628 C3.48485715,4.3368738 5.96895614,2.13113406 9.57885028,0.467266794 C9.73416425,0.387579664 9.8892471,0.319504088 10.0440988,0.258486514 C10.1085819,0.230254503 10.1700603,0.200656426 10.2354678,0.172652092 C10.2370857,0.17652261 10.2389346,0.18016545 10.2407836,0.18380829 Z" id="Combined-Shape" fill="#E57B42"></path>
        </g>
    </g>
</svg>