<?xml version="1.0" encoding="UTF-8"?>
<svg width="50px" height="50px" viewBox="0 0 50 50" version="1.1" xmlns="http://www.w3.org/2000/svg" xmlns:xlink="http://www.w3.org/1999/xlink">
    <title>Halal Pharmaceuticals</title>
    <g id="Halal-Pharmaceuticals" stroke="none" stroke-width="1" fill="none" fill-rule="evenodd">
        <path d="M38.9564935,14.4194805 C35.7954545,14.4194805 33.2233766,16.9925325 33.2233766,20.1529221 L33.2233766,26.7967532 C32.1792208,26.4766234 31.0840909,26.3733766 30.0025974,26.5 L30.0025974,16.8688312 L30.7243506,16.8688312 C31.2821429,16.8688312 31.7366883,16.4133117 31.7366883,15.8568182 L31.7366883,9.16168831 C31.7366883,8.60292208 31.2821429,8.14935065 30.7243506,8.14935065 L6.91525974,8.14935065 C6.35681818,8.14935065 5.90292208,8.60292208 5.90292208,9.16168831 L5.90292208,15.8587662 C5.90292208,16.4172078 6.35649351,16.8707792 6.91525974,16.8707792 L7.63798701,16.8707792 L7.63798701,20.1724026 L7.63571429,35.7720779 L7.63571429,40.1649351 C7.63571429,40.7224026 8.08928571,41.1769481 8.64805195,41.1769481 L28.9844156,41.1769481 C29.1665584,41.1769481 29.3285714,41.1159091 29.475,41.0327922 C29.9454545,41.1275974 30.4337662,41.1769481 30.9282468,41.1769481 C32.5967532,41.1769481 34.1681818,40.5977273 35.4655844,39.5795455 C36.4636364,40.3568182 37.6655844,40.7954545 38.9506494,40.7954545 C42.113961,40.7954545 44.6841262,38.2233766 44.6841262,35.0623377 L44.6841262,20.1564935 C44.6896104,16.9925325 42.1198052,14.4194805 38.9564935,14.4194805 Z M38.9564935,16.4438312 C41.0006494,16.4438312 42.6652597,18.1055195 42.6652597,20.1525974 L42.6652597,26.3474026 L35.2477273,26.3474026 L35.2477273,20.1525974 C35.2477273,18.1055195 36.9103896,16.4438312 38.9564935,16.4438312 Z M34.7772727,29.9853896 C36.6136364,31.8558442 36.8016234,34.7402597 35.3662338,36.8220779 L27.9464286,29.2798701 C28.825974,28.6909091 29.8542208,28.3766232 30.9353896,28.3766232 C32.3886364,28.3762987 33.7548701,28.9435065 34.7772727,29.9853896 Z M7.92954545,10.1737013 L29.7159091,10.1737013 L29.7159091,14.8464286 L7.92954545,14.8464286 L7.92954545,10.1737013 Z M9.66428571,34.7282468 L9.66428571,21.0334416 L9.66428571,16.8707792 L27.9779221,16.8707792 L27.9779221,20.2922078 L15.7681818,20.2922078 C15.2097403,20.2922078 14.7561688,20.7457792 14.7561688,21.3045455 C14.7561688,21.861039 15.2097403,22.3168831 15.7681818,22.3168831 L27.9779221,22.3168831 L27.9779221,24.8711039 L18.9730519,24.8711039 C18.4152597,24.8711039 17.9607143,25.3220779 17.9607143,25.8834416 C17.9607143,26.4409091 18.4152597,26.8957792 18.9730519,26.8957792 L27.9779221,26.8957792 L27.9779221,27.0201299 C27.1558442,27.3642857 26.3866883,27.837013 25.7340909,28.4792208 C25.4295455,28.7779221 25.1727273,29.1097403 24.9314935,29.45 L18.9769481,29.45 C18.4194805,29.45 17.9649351,29.9025974 17.9649351,30.462013 C17.9649351,31.0194805 18.4194805,31.474026 18.9769481,31.474026 L23.9214286,31.474026 C23.6525974,32.3045455 23.525974,33.1623377 23.5535714,34.0301948 L18.9730519,34.0301948 C18.4152597,34.0301948 17.9607143,34.4831169 17.9607143,35.0425325 C17.9607143,35.5980519 18.4152597,36.0548701 18.9730519,36.0548701 L23.9136364,36.0548701 C24.2555195,37.1126623 24.8149351,38.1207792 25.6454545,38.9668831 C25.7165584,39.037987 25.8012987,39.0896104 25.8727273,39.1568182 L9.66428571,39.1525974 L9.66428571,34.7282468 Z M30.9318182,39.1525974 C29.475,39.1525974 28.1107143,38.5811688 27.0925325,37.5435065 C25.2519481,35.6730519 25.0662338,32.7866883 26.5051948,30.7029221 L33.925,38.2451299 C33.0454545,38.8344156 32.011039,39.1525974 30.9318182,39.1525974 L30.9318182,39.1525974 Z M38.9564935,38.7652597 C38.2071429,38.7652597 37.4915584,38.5477273 36.8886364,38.1327922 C39.0019481,35.2542208 38.8003247,31.1857143 36.2201299,28.5603896 C36.1470779,28.488961 36.0581169,28.4334416 35.9831169,28.3662338 L42.6675325,28.3662338 L42.6675325,35.0564935 C42.6652597,37.1045455 41.0006494,38.7652597 38.9564935,38.7652597 Z" id="Shape" fill="#A1A2A5" fill-rule="nonzero"></path>
    </g>
</svg>