<?xml version="1.0" encoding="UTF-8"?>
<svg width="50px" height="50px" viewBox="0 0 50 50" version="1.1" xmlns="http://www.w3.org/2000/svg" xmlns:xlink="http://www.w3.org/1999/xlink">
    <title>Halal Cosmetics</title>
    <g id="Halal-Cosmetics" stroke="none" stroke-width="1" fill="none" fill-rule="evenodd">
        <path d="M34.537,6.58114167 C37.9218017,4.316064 42.3385566,4.316064 45.7233583,6.58114167 L45.7233583,6.58114167 L45.7755167,6.61588333 C46.8533565,7.34022727 47.2811553,8.71751582 46.803375,9.92505 L46.803375,9.92505 L44.5293083,15.6100333 C44.5192786,19.5119192 44.1293838,23.4035603 43.3651417,27.2298833 L43.3651417,27.2298833 L43.0632833,28.7392667 L43.0637417,44.0666667 C43.0637417,45.6867019 41.7504436,47 40.1304083,47 C38.5103731,47 37.197075,45.6867019 37.197075,44.0666667 L37.197075,44.0666667 L37.197075,28.7393583 L36.8952167,27.2298833 C36.1309689,23.403592 35.7410741,19.5119809 35.73105,15.610125 L35.73105,15.610125 L33.457075,9.92505 C32.9792212,8.7175186 33.4070345,7.34018331 34.4849333,6.61588333 L34.4849333,6.61588333 Z M29.3519775,24.9333879 C29.7822327,24.6233179 30.3353055,24.5389606 30.8384333,24.7066667 L30.8384333,24.7066667 L32.2768667,25.1859 C33.6251924,25.6340718 34.5345826,26.8958249 34.5333333,28.3166833 L34.5333333,28.3166833 L34.5333333,33.8 C34.9383421,33.8 35.2666667,34.1283245 35.2666667,34.5333333 L35.2666667,34.5333333 L35.2666667,46.2666667 C35.2666667,46.6716755 34.9383421,47 34.5333333,47 L34.5333333,47 L28.6666667,47 C28.2616579,47 27.9333333,46.6716755 27.9333333,46.2666667 L27.9333333,46.2666667 L27.9333333,34.5333333 C27.9333333,34.1283245 28.2616579,33.8 28.6666667,33.8 L28.6666667,33.8 L28.6666667,26.2717833 C28.6667354,25.741441 28.9217223,25.2434578 29.3519775,24.9333879 Z M8.34833466,27.2283754 C12.087169,24.2590418 17.3794977,24.2590418 21.118332,27.2283754 C24.8571663,30.1977091 26.0555736,35.3525673 24.01,39.6666667 L24.01,39.6666667 L25.7333333,39.6666667 C26.1383421,39.6666667 26.4666667,39.9949912 26.4666667,40.4 L26.4666667,40.4 L26.4666667,40.7666667 C26.4627769,44.2076291 23.6742958,46.9961102 20.2333333,47 L20.2333333,47 L9.23333333,47 C5.79237088,46.9961102 3.00388978,44.2076291 3,40.7666667 L3,40.7666667 L3,40.4 C3,40.2055079 3.07726168,40.0189817 3.21478836,39.881455 C3.35231504,39.7439283 3.53884124,39.6666667 3.73333333,39.6666667 L3.73333333,39.6666667 L5.45666667,39.6666667 C3.41109309,35.3525673 4.60950036,30.1977091 8.34833466,27.2283754 Z M41.5966167,29.4 L38.6632833,29.4 L38.6632833,44.0666667 C38.6632833,44.8766843 39.3199324,45.5333333 40.12995,45.5333333 C40.9399676,45.5333333 41.5966167,44.8766843 41.5966167,44.0666667 L41.5966167,44.0666667 L41.5966167,29.4 Z M33.8,38.2 L29.4,38.2 L29.4,45.5333333 L33.8,45.5333333 L33.8,38.2 Z M10.4594667,41.1333333 L4.4806,41.1333333 C4.67512142,43.6149389 6.74411734,45.5303803 9.23333333,45.5333333 L9.23333333,45.5333333 L20.2333333,45.5333333 C22.7225493,45.5303803 24.7915452,43.6149389 24.9860667,41.1333333 L24.9860667,41.1333333 L19.0104083,41.1333333 C19.2455848,41.8072366 19.1420308,42.5542414 18.7296688,43.1373183 C18.3173068,43.7203952 17.6474909,44.0669297 16.9333333,44.0666667 L16.9333333,44.0666667 L12.5333333,44.0666667 C11.8190639,44.0669019 11.1491672,43.7202474 10.7368251,43.1370195 C10.3244829,42.5537915 10.2210592,41.8066407 10.4594667,41.1333333 L10.4594667,41.1333333 Z M16.9333333,41.1333333 L12.5333333,41.1333333 C12.1283245,41.1333333 11.8,41.4616579 11.8,41.8666667 C11.8,42.2716755 12.1283245,42.6 12.5333333,42.6 L12.5333333,42.6 L16.9333333,42.6 C17.3383421,42.6 17.6666667,42.2716755 17.6666667,41.8666667 C17.6666667,41.4616579 17.3383421,41.1333333 16.9333333,41.1333333 L16.9333333,41.1333333 Z M14.7333333,26.4666667 C11.5895044,26.4669622 8.68458052,28.1442367 7.11257303,30.8668187 C5.54056553,33.5894007 5.54023592,36.9437758 7.11170833,39.6666667 L7.11170833,39.6666667 L8.86666667,39.6666667 C6.59751436,36.6407232 7.00144323,32.385466 9.79941064,29.8405172 C12.5973781,27.2955684 16.8717636,27.2955684 19.669731,29.8405172 C22.4676984,32.385466 22.8716273,36.6407232 20.602475,39.6666667 L20.602475,39.6666667 L22.3549583,39.6666667 C23.9264307,36.9437758 23.9261011,33.5894007 22.3540936,30.8668187 C20.7820861,28.1442367 17.8771622,26.4669622 14.7333333,26.4666667 Z M18.69535,30.9444 L11.8421667,39.6666667 L14.8136333,39.6666667 C14.8349,39.6255083 20.1043583,32.9108333 20.1043583,32.9108333 C19.7757444,32.1649614 19.2959654,31.4953747 18.69535,30.9444 L18.69535,30.9444 Z M20.5714,34.6900833 L16.6612667,39.6666667 L18.6119333,39.6666667 C19.8783642,38.5554955 20.6031196,36.9514631 20.60001,35.2666667 C20.60001,35.0720583 20.5897333,34.879925 20.5714,34.6900833 L20.5714,34.6900833 Z M15.7639417,29.4924917 L9.479,37.872475 C9.71343716,38.3448385 10.0104845,38.7834412 10.3621167,39.1764333 L10.3621167,39.1764333 L17.4981833,30.0941 C16.9555528,29.8031192 16.3701981,29.6000597 15.7639417,29.4924917 L15.7639417,29.4924917 Z M33.8,35.2666667 L29.4,35.2666667 L29.4,36.7333333 L33.8,36.7333333 L33.8,35.2666667 Z M13.9605833,29.4521583 C12.3977288,29.6574544 10.983603,30.484053 10.0378677,31.7451024 C9.09213245,33.0061518 8.69463646,34.595181 8.93523333,36.1529917 L8.93523333,36.1529917 Z M30.3746917,26.0976167 C30.3187379,26.0789475 30.2572191,26.088341 30.2093863,26.1228575 C30.1615536,26.1573741 30.1332503,26.2127973 30.1333332,26.2717833 L30.1333332,26.2717833 L30.1333332,33.8 L33.0666677,33.8 L33.0666677,28.3166833 C33.0675145,27.5271806 32.5622451,26.8260252 31.8130333,26.5770333 L31.8130333,26.5770333 Z M43.0583333,16.2 L37.2008333,16.2 C37.2470015,19.8079418 37.6259689,23.4039286 38.3329167,26.9422333 L38.3329167,26.9422333 L38.5311,27.9333333 L41.7291667,27.9333333 L41.9268917,26.9422333 C42.2489472,25.3281056 42.5027722,23.7029167 42.6883667,22.0666667 L42.6883667,22.0666667 L40.8632833,22.0666667 C40.4582745,22.0666667 40.12995,21.7383421 40.12995,21.3333333 C40.12995,20.9283245 40.4582745,20.6 40.8632833,20.6 L40.8632833,20.6 L42.8357667,20.6 C42.9658111,19.1340667 43.04,17.6674 43.0583333,16.2 L43.0583333,16.2 Z M19.1333333,13.9998369 C19.4490393,13.9998369 19.7293116,14.2018907 19.8290833,14.5014167 C20.2202879,15.6657734 21.1342266,16.5797121 22.2985833,16.9709167 L22.2985833,16.9709167 C22.5643039,17.0592044 22.7563706,17.2913916 22.7935518,17.5690034 C22.830733,17.8466153 22.7065342,18.1211607 22.4734833,18.276525 L22.4734833,18.276525 L21.298225,19.06 C20.7329493,19.4373465 20.2757593,19.9554805 19.9717167,20.5633333 L19.9717167,20.5633333 L19.7892083,20.92835 C19.6649723,21.1767496 19.4110687,21.3336502 19.1333333,21.3336502 C18.855598,21.3336502 18.6016943,21.1767496 18.4774583,20.92835 L18.4774583,20.92835 L18.29495,20.5633333 C17.990868,19.955581 17.5336812,19.4375455 16.9684417,19.060275 L16.9684417,19.060275 L15.7931833,18.2768 C15.5601325,18.1214357 15.4359337,17.8468903 15.4731149,17.5692784 C15.5102961,17.2916666 15.7023627,17.0594794 15.9680833,16.9709167 C17.1324401,16.5797121 18.0463788,15.6657734 18.4375833,14.5014167 C18.5373551,14.2018907 18.8176274,13.9998369 19.1333333,13.9998369 Z M19.1333333,16.3436417 C18.7389412,16.9053626 18.2415265,17.387131 17.6674917,17.763375 L17.6674917,17.763375 L17.7819833,17.8397333 C18.3044756,18.1883206 18.7618424,18.6257694 19.1333333,19.1322333 C19.5048717,18.6258878 19.9622331,18.1885371 20.4846833,17.8400083 L20.4846833,17.8400083 L20.599175,17.76365 C20.025115,17.3873249 19.5276986,16.9054615 19.1333333,16.3436417 Z M27.2,9.5995619 C27.5157059,9.5995619 27.7959782,9.80161568 27.89575,10.1011417 C28.2869545,11.2654984 29.2008933,12.1794371 30.36525,12.5706417 C30.6309706,12.6592044 30.8230372,12.8913916 30.8602184,13.1690034 C30.8973997,13.4466153 30.7732009,13.7211607 30.54015,13.876525 L30.54015,13.876525 L29.3648917,14.66 C28.799616,15.0373465 28.3424259,15.5554805 28.0383833,16.1633333 L28.0383833,16.1633333 L27.855875,16.52835 C27.731639,16.7767496 27.4777354,16.9336502 27.2,16.9336502 C26.9222646,16.9336502 26.668361,16.7767496 26.544125,16.52835 L26.544125,16.52835 L26.3616167,16.1633333 C26.0575347,15.555581 25.6003478,15.0375455 25.0351083,14.660275 L25.0351083,14.660275 L23.85985,13.876525 C23.6267991,13.7211607 23.5026003,13.4466153 23.5397816,13.1690034 C23.5769628,12.8913916 23.7690294,12.6592044 24.03475,12.5706417 C25.1991067,12.1794371 26.1130455,11.2654984 26.50425,10.1011417 C26.6040218,9.80161568 26.8842941,9.5995619 27.2,9.5995619 Z M44.9095417,7.80085833 C42.0170459,5.86531333 38.2427624,5.86531333 35.3502667,7.80085833 L35.3502667,7.80085833 L35.2982,7.8356 C34.7951266,8.17362315 34.5954658,8.81644478 34.8185083,9.38 L34.8185083,9.38 L36.95975,14.7333333 L38.5025,14.7333333 L37.9443417,11.943825 C37.891301,11.6862437 37.9802502,11.4199814 38.1774611,11.2460006 C38.374672,11.0720198 38.6499466,11.0169613 38.8989052,11.1017025 C39.1478638,11.1864438 39.3323845,11.3980086 39.3825,11.656175 L39.3825,11.656175 L39.998225,14.7333333 L40.2625,14.7333333 L40.8774917,11.656175 C40.9276071,11.3980086 41.1121278,11.1864438 41.3610864,11.1017025 C41.610045,11.0169613 41.8853197,11.0720198 42.0825306,11.2460006 C42.2797415,11.4199814 42.3686907,11.6862437 42.31565,11.943825 L42.31565,11.943825 L41.7577667,14.7333333 L43.30015,14.7333333 L45.4416667,9.38 C45.6645815,8.81637834 45.4648156,8.17358687 44.9617,7.8356 L44.9617,7.8356 Z M27.2,11.9436417 C26.8056079,12.5053626 26.3081932,12.987131 25.7341583,13.363375 L25.7341583,13.363375 L25.84865,13.4397333 C26.3711423,13.7883206 26.828509,14.2257694 27.2,14.7322333 C27.5715384,14.2258878 28.0288998,13.7885371 28.55135,13.4400083 L28.55135,13.4400083 L28.6658417,13.36365 C28.0917817,12.9873249 27.5943653,12.5054615 27.2,11.9436417 Z M22.0666667,2.9998369 C22.3823726,2.9998369 22.6626449,3.20189068 22.7624167,3.50141667 C23.1536212,4.6657734 24.0675599,5.57971213 25.2319167,5.97091667 C25.4974962,6.05954895 25.6894335,6.29166664 25.7266076,6.56916662 C25.7637816,6.84666661 25.6397045,7.12111776 25.4068167,7.276525 L25.4068167,7.276525 L24.2315583,8.06 C23.6662826,8.4373465 23.2090926,8.95548047 22.90505,9.56333333 L22.90505,9.56333333 L22.7225417,9.92835 C22.5983057,10.1767496 22.344402,10.3336502 22.0666667,10.3336502 C21.7889313,10.3336502 21.5350277,10.1767496 21.4107917,9.92835 L21.4107917,9.92835 L21.2282833,9.56333333 C20.9242407,8.95548047 20.4670507,8.4373465 19.901775,8.06 L19.901775,8.06 L18.7265167,7.2768 C18.4934658,7.12143567 18.369267,6.8468903 18.4064482,6.56927844 C18.4436294,6.29166658 18.6356961,6.05947937 18.9014167,5.97091667 C20.0657734,5.57971213 20.9797121,4.6657734 21.3709167,3.50141667 C21.4706884,3.20189068 21.7509607,2.9998369 22.0666667,2.9998369 Z M22.0666667,5.34364167 C21.6722746,5.90536259 21.1748598,6.38713104 20.600825,6.763375 L20.600825,6.763375 L20.7153167,6.83973333 C21.237809,7.18832056 21.6951757,7.62576939 22.0666667,8.13223333 C22.438205,7.62588784 22.8955665,7.18853712 23.4180167,6.84000833 L23.4180167,6.84000833 L23.5325083,6.76365 C22.9584484,6.38732486 22.4610319,5.90546147 22.0666667,5.34364167 Z" id="Combined-Shape" fill="#A1A2A5" fill-rule="nonzero"></path>
    </g>
</svg>