<?xml version="1.0" encoding="UTF-8"?>
<svg width="50px" height="50px" viewBox="0 0 50 50" version="1.1" xmlns="http://www.w3.org/2000/svg" xmlns:xlink="http://www.w3.org/1999/xlink">
    <title>Islamic Finance</title>
    <g id="Islamic-Finance" stroke="none" stroke-width="1" fill="none" fill-rule="evenodd">
        <path d="M42.5,5 C43.8807031,5 45,6.11929688 45,7.5 L45,7.5 L45,42.5 C45,43.8807031 43.8807031,45 42.5,45 L42.5,45 L7.5,45 C6.11929687,45 5,43.8807031 5,42.5 L5,42.5 L5,7.5 C5,6.11929688 6.11929687,5 7.5,5 L7.5,5 Z M43.3336014,40.6909296 C43.0728761,40.7831175 42.7922958,40.8332813 42.5,40.8332813 L42.5,40.8332813 L7.5,40.8332813 C7.20770421,40.8332813 6.92712391,40.7831175 6.66639862,40.6909296 L6.66664062,42.5 C6.66664062,42.9602344 7.03976563,43.3333594 7.5,43.3333594 L7.5,43.3333594 L42.5,43.3333594 C42.9602344,43.3333594 43.3333594,42.9602344 43.3333594,42.5 L43.3333594,42.5 Z M43.3336014,36.524289 C43.0728761,36.6164769 42.7922958,36.6666406 42.5,36.6666406 L42.5,36.6666406 L7.5,36.6666406 C7.20770421,36.6666406 6.92712391,36.6164769 6.66639862,36.524289 L6.66664062,38.3332813 C6.66664062,38.7935156 7.03976563,39.1666406 7.5,39.1666406 L7.5,39.1666406 L42.5,39.1666406 C42.9602344,39.1666406 43.3333594,38.7935156 43.3333594,38.3332813 L43.3333594,38.3332813 Z M43.3336014,32.3576483 C43.0728761,32.4498363 42.7922958,32.5 42.5,32.5 L42.5,32.5 L7.5,32.5 C7.20770421,32.5 6.92712391,32.4498363 6.66639862,32.3576483 L6.66664062,34.1666406 C6.66664062,34.626875 7.03976563,35 7.5,35 L7.5,35 L42.5,35 C42.9602344,35 43.3333594,34.626875 43.3333594,34.1666406 L43.3333594,34.1666406 Z M43.3336014,28.1910077 C43.0728761,28.2831956 42.7922958,28.3333594 42.5,28.3333594 L42.5,28.3333594 L7.5,28.3333594 C7.20770421,28.3333594 6.92712391,28.2831956 6.66639862,28.1910077 L6.66664062,30 C6.66664062,30.4602344 7.03976563,30.8333594 7.5,30.8333594 L7.5,30.8333594 L42.5,30.8333594 C42.9602344,30.8333594 43.3333594,30.4602344 43.3333594,30 L43.3333594,30 Z M42.5,6.66664063 L7.5,6.66664063 C7.03976562,6.66664063 6.66664062,7.03976563 6.66664062,7.5 L6.66664062,7.5 L6.66664062,25.8333594 C6.66664062,26.2935938 7.03976562,26.6667188 7.5,26.6667188 L7.5,26.6667188 L42.5,26.6667188 C42.9602344,26.6667188 43.3333594,26.2935938 43.3333594,25.8333594 L43.3333594,25.8333594 L43.3333594,7.5 C43.3333594,7.03976563 42.9602344,6.66664063 42.5,6.66664063 L42.5,6.66664063 Z M17.5,8.33335938 L17.5,10 L14.0975,10 C13.7390625,12.0967188 12.0967188,13.7390625 10,14.0975781 L10,14.0975781 L10,19.2359375 C12.0967188,19.594375 13.7390625,21.2367188 14.0975,23.3334375 L14.0975,23.3334375 L17.5,23.3334375 L17.5,25.0000781 L13.3333594,25.0000781 C12.873125,25.0000781 12.5,24.6269531 12.5,24.1667188 C12.5,22.3257031 11.0075781,20.8333594 9.16664063,20.8333594 C8.70640625,20.8333594 8.33328125,20.4602344 8.33328125,20 L8.33328125,20 L8.33328125,13.3333594 C8.33328125,12.873125 8.70640625,12.5 9.16664063,12.5 C11.0075781,12.5 12.5,11.0075781 12.5,9.16664063 C12.5,8.70640625 12.873125,8.33335938 13.3333594,8.33335938 L13.3333594,8.33335938 L17.5,8.33335938 Z M36.6666406,8.33328125 C37.126875,8.33328125 37.5,8.70640625 37.5,9.16664063 C37.5,11.0075781 38.9924219,12.5 40.8333594,12.5 C41.2935937,12.5 41.6667187,12.873125 41.6667187,13.3332813 L41.6667187,13.3332813 L41.6667187,19.9999219 C41.6667187,20.4601563 41.2935937,20.8332813 40.8333594,20.8332813 C38.9924219,20.8332813 37.5,22.3257031 37.5,24.1666406 C37.5,24.626875 37.126875,25 36.6666406,25 L36.6666406,25 L32.5,25 L32.5,23.3333594 L35.9025,23.3333594 C36.2609375,21.2366406 37.9032812,19.5942969 40,19.2358594 L40,19.2358594 L40,14.0975 C37.9032812,13.7390625 36.2609375,12.0967188 35.9025,10 L35.9025,10 L32.5,10 L32.5,8.33328125 Z M41.6666406,23.3333594 L41.6666406,25 L40,25 L40,23.3333594 L41.6666406,23.3333594 Z M10,23.3333594 L10,25 L8.33335938,25 L8.33335938,23.3333594 L10,23.3333594 Z M25,8.33335938 C29.6023438,8.33335938 33.3333594,12.0642969 33.3333594,16.6666406 C33.3282812,21.2669531 29.6003125,24.9949219 25,25 C20.3976562,25 16.6666406,21.2690625 16.6666406,16.6667188 C16.6666406,12.0642969 20.3976562,8.33335938 25,8.33335938 Z M25,10 C21.318125,10 18.3333594,12.9848438 18.3333594,16.6667188 C18.3333594,20.3485938 21.318125,23.3333594 25,23.3333594 C28.681875,23.3333594 31.6666406,20.3485938 31.6666406,16.6666406 C31.6625,12.9864844 28.6801562,10.0041406 25,10 Z M10,8.33335938 L10,10 L8.33335938,10 L8.33335938,8.33335938 L10,8.33335938 Z M41.6666406,8.33335938 L41.6666406,10 L40,10 L40,8.33335938 L41.6666406,8.33335938 Z" id="Combined-Shape" fill="#A1A2A5" fill-rule="nonzero"></path>
    </g>
</svg>