<?xml version="1.0" encoding="UTF-8"?>
<svg width="50px" height="50px" viewBox="0 0 50 50" version="1.1" xmlns="http://www.w3.org/2000/svg" xmlns:xlink="http://www.w3.org/1999/xlink">
    <title>Modest Fashion</title>
    <g id="Modest-Fashion" stroke="none" stroke-width="1" fill="none" fill-rule="evenodd">
        <path d="M25.0063345,8 C30.6822477,8 35.2998311,12.6176626 35.2998311,18.2934966 L35.2998311,18.2934966 L35.2998311,31.4375 C35.2998311,32.7638566 36.3803315,33.8129223 37.6752534,33.8129223 C39.8452016,33.8129223 40.0055427,37.2427946 39.9193148,36.9934544 C37.936629,37.0876795 35.9975718,37.7400496 34.2825169,38.8971178 C31.5348659,40.7510557 28.3271748,41.7309966 25.0063345,41.7309966 C21.6854941,41.7309966 18.477803,40.7510557 15.7299937,38.8970386 C14.0150179,37.7399704 12.0759607,37.0876003 10.0932749,36.9933752 C10.0071263,37.242557 10.1778399,33.8129223 12.3374155,33.8129223 C13.6324166,33.8129223 14.7128378,32.7637774 14.7128378,31.4375 L14.7128378,31.4375 L14.7128378,18.2934966 C14.7128378,12.6176626 19.3305004,8 25.0063345,8 Z M25.0063345,9.58361486 C20.2037057,9.58361486 16.2964527,13.4908678 16.2964527,18.2934966 L16.2964527,18.2934966 L16.2964527,25.1030405 C16.2964527,29.075776 18.9826594,32.5440509 22.828864,33.5371358 C23.2523226,33.6464844 23.5068887,34.0784153 23.3976193,34.5017948 C23.2885874,34.9238281 22.8578442,35.1802154 22.4329603,35.07055 C19.8203125,34.3959301 17.6608161,32.7546717 16.2964527,30.5895534 L16.2964527,30.5895534 L16.2964527,31.4375 C16.2964527,31.9274704 16.2035737,32.4130068 16.0276341,32.8677418 C16.5006598,33.4138514 17.0219067,33.9175201 17.5835357,34.3677418 C17.9247255,34.6413112 17.9795978,35.1396748 17.7060283,35.4808647 C17.433409,35.8207876 16.9353621,35.8778769 16.5929054,35.6033573 C16.0737173,35.1871041 15.5852513,34.7303896 15.131704,34.2406567 C14.3986486,34.9699905 13.3970914,35.3965372 12.3374155,35.3965372 C12.049356,35.3965372 11.7684227,35.4505384 11.5057802,35.5491976 C13.3061128,35.8359903 15.0450802,36.5246252 16.6157886,37.5843011 C19.1008763,39.2611117 22.0022962,40.1473818 25.0063345,40.1473818 C28.0102935,40.1473818 30.9117135,39.2611117 33.3968011,37.5843011 C34.9675887,36.5246252 36.7065562,35.8359111 38.5069679,35.5491976 C38.2443254,35.4505384 37.9633129,35.3965372 37.6752534,35.3965372 C36.6154983,35.3965372 35.6137035,34.9699113 34.8808858,34.2407359 C34.4272593,34.7304688 33.9387933,35.1871041 33.4196843,35.6033573 C33.0780986,35.8773226 32.579735,35.8215794 32.3066406,35.4808647 C32.0330712,35.1396748 32.0878642,34.6413904 32.4291332,34.3678209 C32.9907622,33.9175992 33.5120091,33.4139305 33.9850348,32.8677418 C33.809016,32.41269 33.7162162,31.9273121 33.7162162,31.4375 L33.7162162,31.4375 L33.7162162,30.5896326 C32.3518528,32.7547508 30.1923564,34.3959301 27.5797086,35.0706292 C27.1556957,35.180057 26.724319,34.9247783 26.6150496,34.5018739 C26.5057802,34.0784153 26.7603463,33.6465636 27.1838049,33.5372149 C31.0299303,32.5440509 33.7162162,29.075776 33.7162162,25.1030405 L33.7162162,25.1030405 L33.7162162,18.2934966 C33.7162162,13.4908678 29.8089633,9.58361486 25.0063345,9.58361486 Z M27.9756915,36.6046769 C28.3989918,36.4954867 28.8310811,36.7500528 28.9402713,37.1735114 C29.0494616,37.59697 28.7948955,38.0287426 28.3714369,38.138012 C26.1712416,38.705738 23.8411106,38.705738 21.6412321,38.138012 C21.2178526,38.0287426 20.9631282,37.5968908 21.0724768,37.1735114 C21.1817462,36.750132 21.6133604,36.4955659 22.0369774,36.6046769 C23.9685125,37.1030405 26.0442356,37.1030405 27.9756915,36.6046769 Z M25.0063345,14.3344595 C28.9679054,14.3344595 32.1326014,17.5461888 32.1326014,21.4607264 L32.1326014,21.4607264 L32.1326014,25.1030405 C32.1326014,29.0324641 28.935758,32.2293074 25.0063345,32.2293074 C21.0769109,32.2293074 17.8800676,29.0324641 17.8800676,25.1030405 L17.8800676,25.1030405 L17.8800676,21.4607264 C17.8800676,17.5526024 21.0389833,14.3344595 25.0063345,14.3344595 Z M30.4920555,20.6689189 L19.5206134,20.6689189 C19.4832401,20.9306113 19.4636824,21.1953125 19.4636824,21.4607264 L19.4636824,21.4607264 L19.4636824,25.1030405 C19.4636824,28.1592589 21.9501161,30.6456926 25.0063345,30.6456926 C28.062632,30.6456926 30.5489865,28.1592589 30.5489865,25.1030405 L30.5489865,25.1030405 L30.5489865,21.4607264 C30.5489865,21.1953125 30.5294288,20.9306905 30.4920555,20.6689189 L30.4920555,20.6689189 Z M25.0063345,15.9180743 C22.8329022,15.9180743 20.8989918,17.1792652 19.9969647,19.0853041 L19.9969647,19.0853041 L30.0157834,19.0853041 C29.1136772,17.1792652 27.1796875,15.9180743 25.0063345,15.9180743 Z" id="Combined-Shape" fill="#A1A2A5" fill-rule="nonzero"></path>
    </g>
</svg>