<?xml version="1.0" encoding="UTF-8"?>
<svg width="83px" height="15px" viewBox="0 0 83 15" version="1.1" xmlns="http://www.w3.org/2000/svg" xmlns:xlink="http://www.w3.org/1999/xlink">
    <title>ImpactIntell logo</title>
    <g id="Dashboard" stroke="none" stroke-width="1" fill="none" fill-rule="evenodd">
        <g id="ImpactIntell-logo" transform="translate(0.328000, 0.344000)" fill-rule="nonzero">
            <path d="M1.408,10.656 L1.408,0 L0,0 L0,10.656 L1.408,10.656 Z M5.28,10.656 L5.28,6.56 C5.28,5.76 5.45333333,5.13866667 5.8,4.696 C6.14666667,4.25333333 6.608,4.032 7.184,4.032 C7.696,4.032 8.07733333,4.17333333 8.328,4.456 C8.57866667,4.73866667 8.704,5.14133333 8.704,5.664 L8.704,10.656 L10.08,10.656 L10.08,6.656 C10.08,5.856 10.2533333,5.21866667 10.6,4.744 C10.9466667,4.26933333 11.408,4.032 11.984,4.032 C12.496,4.032 12.8773333,4.17333333 13.128,4.456 C13.3786667,4.73866667 13.504,5.14133333 13.504,5.664 L13.504,10.656 L14.88,10.656 L14.88,5.456 C14.88,4.64533333 14.688,4.008 14.304,3.544 C13.92,3.08 13.296,2.848 12.432,2.848 C11.7813333,2.848 11.256,3.016 10.856,3.352 C10.456,3.688 10.1653333,4.096 9.984,4.576 C9.824,4.032 9.568,3.608 9.216,3.304 C8.864,3 8.34666667,2.848 7.664,2.848 C7.056,2.848 6.54933333,3.008 6.144,3.328 C5.73866667,3.648 5.43466667,4.064 5.232,4.576 L5.232,3.008 L3.904,3.008 L3.904,10.656 L5.28,10.656 Z M18.512,13.504 L18.512,9.2 C18.7466667,9.69066667 19.072,10.0826667 19.488,10.376 C19.904,10.6693333 20.4213333,10.816 21.04,10.816 C21.5733333,10.816 22.032,10.712 22.416,10.504 C22.8,10.296 23.1146667,10.0133333 23.36,9.656 C23.6053333,9.29866667 23.7866667,8.87733333 23.904,8.392 C24.0213333,7.90666667 24.08,7.38666667 24.08,6.832 C24.08,6.27733333 24.0213333,5.75733333 23.904,5.272 C23.7866667,4.78666667 23.6053333,4.36533333 23.36,4.008 C23.1146667,3.65066667 22.8,3.368 22.416,3.16 C22.032,2.952 21.5786667,2.848 21.056,2.848 C20.4266667,2.848 19.896,2.99466667 19.464,3.288 C19.032,3.58133333 18.6986667,3.97866667 18.464,4.48 L18.464,3.008 L17.136,3.008 L17.136,13.504 L18.512,13.504 Z M20.688,9.712 C20.3146667,9.712 19.992,9.63466667 19.72,9.48 C19.448,9.32533333 19.224,9.11733333 19.048,8.856 C18.872,8.59466667 18.7386667,8.29066667 18.648,7.944 C18.5573333,7.59733333 18.512,7.22666667 18.512,6.832 C18.512,6.43733333 18.5573333,6.06666667 18.648,5.72 C18.7386667,5.37333333 18.872,5.06933333 19.048,4.808 C19.224,4.54666667 19.448,4.33866667 19.72,4.184 C19.992,4.02933333 20.3146667,3.952 20.688,3.952 C21.0506667,3.952 21.36,4.024 21.616,4.168 C21.872,4.312 22.08,4.512 22.24,4.768 C22.4,5.024 22.5173333,5.328 22.592,5.68 C22.6666667,6.032 22.704,6.416 22.704,6.832 C22.704,7.248 22.6666667,7.632 22.592,7.984 C22.5173333,8.336 22.4,8.64 22.24,8.896 C22.08,9.152 21.872,9.352 21.616,9.496 C21.36,9.64 21.0506667,9.712 20.688,9.712 Z M27.856,10.816 C28.464,10.816 28.9946667,10.6906667 29.448,10.44 C29.9013333,10.1893333 30.2613333,9.82933333 30.528,9.36 L30.528,10.656 L31.84,10.656 L31.84,5.392 C31.84,4.528 31.5866667,3.888 31.08,3.472 C30.5733333,3.056 29.8186667,2.848 28.816,2.848 C27.8026667,2.848 26.864,3.05066667 26,3.456 L26.24,4.544 C26.6133333,4.37333333 26.9973333,4.24266667 27.392,4.152 C27.7866667,4.06133333 28.2026667,4.016 28.64,4.016 C29.2586667,4.016 29.7173333,4.13333333 30.016,4.368 C30.3146667,4.60266667 30.464,4.976 30.464,5.488 L30.464,6.192 L28.16,6.192 C27.7653333,6.192 27.4026667,6.24 27.072,6.336 C26.7413333,6.432 26.4586667,6.576 26.224,6.768 C25.9893333,6.96 25.8053333,7.20533333 25.672,7.504 C25.5386667,7.80266667 25.472,8.15466667 25.472,8.56 C25.472,9.25333333 25.68,9.80266667 26.096,10.208 C26.512,10.6133333 27.0986667,10.816 27.856,10.816 Z M28.256,9.84 C27.7866667,9.84 27.4266667,9.73333333 27.176,9.52 C26.9253333,9.30666667 26.8,8.98133333 26.8,8.544 C26.8,7.63733333 27.3173333,7.184 28.352,7.184 L30.464,7.184 L30.464,7.664 C30.464,7.96266667 30.408,8.24533333 30.296,8.512 C30.184,8.77866667 30.0293333,9.01066667 29.832,9.208 C29.6346667,9.40533333 29.4026667,9.56 29.136,9.672 C28.8693333,9.784 28.576,9.84 28.256,9.84 Z M37.168,10.816 C37.5946667,10.816 38.008,10.776 38.408,10.696 C38.808,10.616 39.1413333,10.5013333 39.408,10.352 L39.184,9.312 C38.9386667,9.42933333 38.6613333,9.52266667 38.352,9.592 C38.0426667,9.66133333 37.7173333,9.696 37.376,9.696 C36.9173333,9.696 36.5306667,9.62666667 36.216,9.488 C35.9013333,9.34933333 35.6453333,9.15466667 35.448,8.904 C35.2506667,8.65333333 35.1093333,8.352 35.024,8 C34.9386667,7.648 34.896,7.25866667 34.896,6.832 C34.896,6.40533333 34.9386667,6.016 35.024,5.664 C35.1093333,5.312 35.2506667,5.01066667 35.448,4.76 C35.6453333,4.50933333 35.9013333,4.31466667 36.216,4.176 C36.5306667,4.03733333 36.9173333,3.968 37.376,3.968 C37.7173333,3.968 38.0426667,4.00266667 38.352,4.072 C38.6613333,4.14133333 38.9386667,4.23466667 39.184,4.352 L39.408,3.328 C39.1413333,3.17866667 38.808,3.06133333 38.408,2.976 C38.008,2.89066667 37.5946667,2.848 37.168,2.848 C35.9733333,2.848 35.0666667,3.2 34.448,3.904 C33.8293333,4.608 33.52,5.584 33.52,6.832 C33.52,8.08 33.8293333,9.056 34.448,9.76 C35.0666667,10.464 35.9733333,10.816 37.168,10.816 Z M43.424,10.8 C43.648,10.8 43.8746667,10.7813333 44.104,10.744 C44.3333333,10.7066667 44.5226667,10.6613333 44.672,10.608 L44.64,9.584 C44.512,9.616 44.3786667,9.64266667 44.24,9.664 C44.1013333,9.68533333 43.9626667,9.696 43.824,9.696 C43.4506667,9.696 43.2,9.61866667 43.072,9.464 C42.944,9.30933333 42.88,9.07733333 42.88,8.768 L42.88,4.176 L44.688,4.176 L44.688,3.008 L42.88,3.008 L42.88,1.008 L41.504,1.008 L41.504,3.008 L40.432,3.008 L40.432,4.176 L41.504,4.176 L41.504,8.88 C41.504,9.52 41.6533333,10 41.952,10.32 C42.2506667,10.64 42.7413333,10.8 43.424,10.8 Z" id="Impact" fill="#A40234"></path>
            <path d="M49.128,10.656 L49.128,0 L46.792,0 L46.792,10.656 L49.128,10.656 Z M53.48,10.656 L53.48,6.368 C53.48,5.8026665 53.5973333,5.37333301 53.832,5.08 C54.0666667,4.7866665 54.4453335,4.64 54.968,4.64 C55.32,4.64 55.584,4.736 55.76,4.928 C55.936,5.12 56.024,5.3866665 56.024,5.728 L56.024,5.728 L56.024,10.656 L58.296,10.656 L58.296,5.36 C58.296,4.496 58.1066665,3.8346665 57.728,3.376 C57.3493335,2.9173335 56.706667,2.688 55.8,2.688 C55.4693335,2.688 55.176,2.728 54.92,2.808 C54.664,2.888 54.44,2.9946665 54.248,3.128 C54.056,3.2613335 53.8906667,3.41066699 53.752,3.576 C53.6133333,3.7413335 53.5013333,3.9093335 53.416,4.08 L53.416,4.08 L53.416,2.848 L51.208,2.848 L51.208,10.656 L53.48,10.656 Z M62.792,10.816 C63.0693333,10.816 63.333333,10.7946667 63.584,10.752 C63.8346665,10.7093333 64.061333,10.6613333 64.264,10.608 L64.264,10.608 L64.216,8.928 C63.9706665,8.9813335 63.741333,9.008 63.528,9.008 C63.2506667,9.008 63.0613335,8.9546665 62.96,8.848 C62.8586667,8.7413335 62.808,8.576 62.808,8.352 L62.808,8.352 L62.808,4.768 L64.328,4.768 L64.328,2.848 L62.808,2.848 L62.808,0.864 L60.536,0.864 L60.536,2.848 L59.496,2.848 L59.496,4.768 L60.536,4.768 L60.536,8.576 C60.536,9.344 60.7146665,9.9093335 61.072,10.272 C61.4293333,10.6346667 62.0026665,10.816 62.792,10.816 Z M69.192,10.816 C69.7893335,10.816 70.344,10.7546667 70.856,10.632 C71.368,10.5093333 71.848,10.3413333 72.296,10.128 L72.296,10.128 L71.912,8.592 C71.5493335,8.752 71.1733335,8.8826665 70.784,8.984 C70.3946665,9.0853335 69.981333,9.136 69.544,9.136 C68.904,9.136 68.424,9.008 68.104,8.752 C67.784,8.496 67.5813333,8.10666675 67.496,7.584 L67.496,7.584 L72.344,7.584 L72.344,6.528 C72.344,5.952 72.28,5.4293335 72.152,4.96 C72.024,4.4906665 71.824,4.088 71.552,3.752 C71.28,3.416 70.9333335,3.1546665 70.512,2.968 C70.0906665,2.7813335 69.5866665,2.688 69,2.688 C68.328,2.688 67.752,2.7946665 67.272,3.008 C66.792,3.2213335 66.3946665,3.512 66.08,3.88 C65.7653335,4.248 65.536,4.68 65.392,5.176 C65.248,5.672 65.176,6.1973335 65.176,6.752 C65.176,8.0106665 65.504,9.0026665 66.16,9.728 C66.816,10.4533333 67.8266667,10.816 69.192,10.816 Z M70.216,6 L67.48,6 C67.5333333,5.4453335 67.6746665,5.0133335 67.904,4.704 C68.1333333,4.3946665 68.488,4.24 68.968,4.24 C69.416,4.24 69.736,4.3786665 69.928,4.656 C70.12,4.9333335 70.216,5.312 70.216,5.792 L70.216,5.792 L70.216,6 Z M75.8,10.816 C76.056,10.816 76.3093333,10.7946667 76.56,10.752 C76.8106667,10.7093333 77.0053335,10.6613333 77.144,10.608 L77.144,10.608 L77.096,8.912 C76.936,8.9653335 76.76,8.992 76.568,8.992 C76.184,8.992 75.992,8.8213335 75.992,8.48 L75.992,8.48 L75.992,0 L73.72,0 L73.72,8.496 C73.72,9.232 73.8746665,9.80266675 74.184,10.208 C74.4933335,10.6133333 75.032,10.816 75.8,10.816 Z M80.392,10.816 C80.648,10.816 80.9013333,10.7946667 81.152,10.752 C81.4026667,10.7093333 81.5973335,10.6613333 81.736,10.608 L81.736,10.608 L81.688,8.912 C81.528,8.9653335 81.352,8.992 81.16,8.992 C80.776,8.992 80.584,8.8213335 80.584,8.48 L80.584,8.48 L80.584,0 L78.312,0 L78.312,8.496 C78.312,9.232 78.4666665,9.80266675 78.776,10.208 C79.0853335,10.6133333 79.624,10.816 80.392,10.816 Z" id="Intell" fill="#FFFFFF"></path>
        </g>
    </g>
</svg>